<mxfile host="app.diagrams.net" agent="Mozilla/5.0 (Windows NT 10.0; Win64; x64) AppleWebKit/537.36 (KHTML, like Gecko) Chrome/127.0.0.0 Safari/537.36 OPR/113.0.0.0" version="24.7.16">
  <diagram id="C5RBs43oDa-KdzZeNtuy" name="Page-1">
    <mxGraphModel dx="2500" dy="1338" grid="1" gridSize="10" guides="1" tooltips="1" connect="1" arrows="1" fold="1" page="1" pageScale="1" pageWidth="827" pageHeight="1169" math="0" shadow="0">
      <root>
        <mxCell id="WIyWlLk6GJQsqaUBKTNV-0" />
        <mxCell id="WIyWlLk6GJQsqaUBKTNV-1" parent="WIyWlLk6GJQsqaUBKTNV-0" />
        <mxCell id="C_fEFWVo3qg7ldsZDk-C-93" style="edgeStyle=none;curved=1;rounded=0;orthogonalLoop=1;jettySize=auto;html=1;exitX=0.5;exitY=1;exitDx=0;exitDy=0;exitPerimeter=0;entryX=0.5;entryY=0;entryDx=0;entryDy=0;fontSize=12;startSize=8;endSize=8;fontFamily=Times New Roman;" parent="WIyWlLk6GJQsqaUBKTNV-1" source="C_fEFWVo3qg7ldsZDk-C-1" target="C_fEFWVo3qg7ldsZDk-C-6" edge="1">
          <mxGeometry relative="1" as="geometry" />
        </mxCell>
        <mxCell id="C_fEFWVo3qg7ldsZDk-C-1" value="Начало" style="strokeWidth=2;html=1;shape=mxgraph.flowchart.terminator;whiteSpace=wrap;fontFamily=Times New Roman;" parent="WIyWlLk6GJQsqaUBKTNV-1" vertex="1">
          <mxGeometry x="160" y="20" width="120" height="40" as="geometry" />
        </mxCell>
        <mxCell id="C_fEFWVo3qg7ldsZDk-C-4" value="Конец" style="strokeWidth=2;html=1;shape=mxgraph.flowchart.terminator;whiteSpace=wrap;fontFamily=Times New Roman;" parent="WIyWlLk6GJQsqaUBKTNV-1" vertex="1">
          <mxGeometry x="160" y="645" width="120" height="40" as="geometry" />
        </mxCell>
        <mxCell id="C_fEFWVo3qg7ldsZDk-C-94" style="edgeStyle=none;curved=1;rounded=0;orthogonalLoop=1;jettySize=auto;html=1;exitX=0.5;exitY=1;exitDx=0;exitDy=0;entryX=0.5;entryY=0;entryDx=0;entryDy=0;fontSize=12;startSize=8;endSize=8;fontFamily=Times New Roman;" parent="WIyWlLk6GJQsqaUBKTNV-1" source="C_fEFWVo3qg7ldsZDk-C-6" target="C_fEFWVo3qg7ldsZDk-C-11" edge="1">
          <mxGeometry relative="1" as="geometry" />
        </mxCell>
        <mxCell id="C_fEFWVo3qg7ldsZDk-C-6" value="Вывод&lt;div&gt;&lt;br&gt;&lt;/div&gt;" style="shape=parallelogram;perimeter=parallelogramPerimeter;whiteSpace=wrap;html=1;fixedSize=1;fontFamily=Times New Roman;" parent="WIyWlLk6GJQsqaUBKTNV-1" vertex="1">
          <mxGeometry x="160" y="80" width="120" height="80" as="geometry" />
        </mxCell>
        <mxCell id="C_fEFWVo3qg7ldsZDk-C-7" value="&lt;span style=&quot;color: rgba(0, 0, 0, 0); font-size: 0px;&quot;&gt;в&lt;/span&gt;" style="strokeWidth=2;html=1;shape=mxgraph.flowchart.annotation_2;align=left;labelPosition=right;pointerEvents=1;fontFamily=Times New Roman;" parent="WIyWlLk6GJQsqaUBKTNV-1" vertex="1">
          <mxGeometry x="270" y="70" width="80" height="100" as="geometry" />
        </mxCell>
        <mxCell id="C_fEFWVo3qg7ldsZDk-C-9" value="&lt;font style=&quot;font-size: 12px;&quot;&gt;Введите строку s&lt;/font&gt;&lt;div style=&quot;font-size: 12px;&quot;&gt;&lt;font style=&quot;font-size: 12px;&quot;&gt;В этой строке мы найдём самую длинную последовательность подряд идущих цифр и удалим её.&lt;br style=&quot;font-size: 12px;&quot;&gt;&lt;/font&gt;&lt;/div&gt;&lt;div style=&quot;&quot;&gt;Введите s:&lt;br style=&quot;font-size: 12px;&quot;&gt;&lt;/div&gt;" style="text;strokeColor=none;fillColor=none;html=1;align=left;verticalAlign=middle;whiteSpace=wrap;rounded=0;fontSize=12;movable=1;resizable=1;rotatable=1;deletable=1;editable=1;locked=0;connectable=1;fontFamily=Times New Roman;" parent="WIyWlLk6GJQsqaUBKTNV-1" vertex="1">
          <mxGeometry x="320" y="80" width="520" height="80" as="geometry" />
        </mxCell>
        <mxCell id="C_fEFWVo3qg7ldsZDk-C-95" style="edgeStyle=none;curved=1;rounded=0;orthogonalLoop=1;jettySize=auto;html=1;exitX=0.5;exitY=1;exitDx=0;exitDy=0;entryX=0.5;entryY=0;entryDx=0;entryDy=0;fontSize=12;startSize=8;endSize=8;fontFamily=Times New Roman;" parent="WIyWlLk6GJQsqaUBKTNV-1" source="C_fEFWVo3qg7ldsZDk-C-11" target="C_fEFWVo3qg7ldsZDk-C-18" edge="1">
          <mxGeometry relative="1" as="geometry" />
        </mxCell>
        <mxCell id="C_fEFWVo3qg7ldsZDk-C-11" value="Ввод&lt;div&gt;string s&lt;/div&gt;" style="shape=parallelogram;perimeter=parallelogramPerimeter;whiteSpace=wrap;html=1;fixedSize=1;fontFamily=Times New Roman;" parent="WIyWlLk6GJQsqaUBKTNV-1" vertex="1">
          <mxGeometry x="160" y="200" width="120" height="80" as="geometry" />
        </mxCell>
        <mxCell id="C_fEFWVo3qg7ldsZDk-C-18" value="Вывод&lt;div&gt;&lt;br&gt;&lt;/div&gt;" style="shape=parallelogram;perimeter=parallelogramPerimeter;whiteSpace=wrap;html=1;fixedSize=1;fontFamily=Times New Roman;" parent="WIyWlLk6GJQsqaUBKTNV-1" vertex="1">
          <mxGeometry x="160" y="310" width="120" height="80" as="geometry" />
        </mxCell>
        <mxCell id="C_fEFWVo3qg7ldsZDk-C-19" value="&lt;span style=&quot;color: rgba(0, 0, 0, 0); font-size: 0px;&quot;&gt;в&lt;/span&gt;" style="strokeWidth=2;html=1;shape=mxgraph.flowchart.annotation_2;align=left;labelPosition=right;pointerEvents=1;fontFamily=Times New Roman;" parent="WIyWlLk6GJQsqaUBKTNV-1" vertex="1">
          <mxGeometry x="270" y="300" width="80" height="100" as="geometry" />
        </mxCell>
        <mxCell id="C_fEFWVo3qg7ldsZDk-C-20" value="&lt;div style=&quot;&quot;&gt;$&quot;Первая самая длинная последовательность цифр в строке: {LongestDigitSequanceInRow(s)}&quot;&lt;br&gt;&lt;br&gt;string LongestDigitSequanceInRow(string s) - это подсистема&lt;br style=&quot;font-size: 12px;&quot;&gt;&lt;/div&gt;" style="text;strokeColor=none;fillColor=none;html=1;align=left;verticalAlign=middle;whiteSpace=wrap;rounded=0;fontSize=12;movable=1;resizable=1;rotatable=1;deletable=1;editable=1;locked=0;connectable=1;fontFamily=Times New Roman;" parent="WIyWlLk6GJQsqaUBKTNV-1" vertex="1">
          <mxGeometry x="320" y="310" width="520" height="80" as="geometry" />
        </mxCell>
        <mxCell id="C_fEFWVo3qg7ldsZDk-C-21" value="Вывод&lt;div&gt;&lt;br&gt;&lt;/div&gt;" style="shape=parallelogram;perimeter=parallelogramPerimeter;whiteSpace=wrap;html=1;fixedSize=1;fontFamily=Times New Roman;" parent="WIyWlLk6GJQsqaUBKTNV-1" vertex="1">
          <mxGeometry x="159" y="420" width="120" height="80" as="geometry" />
        </mxCell>
        <mxCell id="C_fEFWVo3qg7ldsZDk-C-22" value="&lt;span style=&quot;color: rgba(0, 0, 0, 0); font-size: 0px;&quot;&gt;в&lt;/span&gt;" style="strokeWidth=2;html=1;shape=mxgraph.flowchart.annotation_2;align=left;labelPosition=right;pointerEvents=1;fontFamily=Times New Roman;" parent="WIyWlLk6GJQsqaUBKTNV-1" vertex="1">
          <mxGeometry x="260" y="410" width="80" height="100" as="geometry" />
        </mxCell>
        <mxCell id="C_fEFWVo3qg7ldsZDk-C-23" value="&lt;div style=&quot;&quot;&gt;$&quot;Первая самая длинная последовательность цифр в строке: {LongestDigitSequanceInRow(s)}&quot;&lt;br&gt;&lt;br&gt;string LongestDigitSequanceInRow(string s) - это подсистема&lt;br style=&quot;font-size: 12px;&quot;&gt;&lt;/div&gt;" style="text;strokeColor=none;fillColor=none;html=1;align=left;verticalAlign=middle;whiteSpace=wrap;rounded=0;fontSize=12;movable=1;resizable=1;rotatable=1;deletable=1;editable=1;locked=0;connectable=1;fontFamily=Times New Roman;" parent="WIyWlLk6GJQsqaUBKTNV-1" vertex="1">
          <mxGeometry x="310" y="420" width="520" height="80" as="geometry" />
        </mxCell>
        <mxCell id="C_fEFWVo3qg7ldsZDk-C-99" style="edgeStyle=none;curved=1;rounded=0;orthogonalLoop=1;jettySize=auto;html=1;exitX=0.5;exitY=1;exitDx=0;exitDy=0;exitPerimeter=0;entryX=0.5;entryY=0;entryDx=0;entryDy=0;fontSize=12;startSize=8;endSize=8;fontFamily=Times New Roman;" parent="WIyWlLk6GJQsqaUBKTNV-1" source="C_fEFWVo3qg7ldsZDk-C-24" target="C_fEFWVo3qg7ldsZDk-C-28" edge="1">
          <mxGeometry relative="1" as="geometry" />
        </mxCell>
        <mxCell id="C_fEFWVo3qg7ldsZDk-C-24" value="Начало" style="strokeWidth=2;html=1;shape=mxgraph.flowchart.terminator;whiteSpace=wrap;fontFamily=Times New Roman;" parent="WIyWlLk6GJQsqaUBKTNV-1" vertex="1">
          <mxGeometry x="870" y="2" width="120" height="40" as="geometry" />
        </mxCell>
        <mxCell id="C_fEFWVo3qg7ldsZDk-C-25" value="Конец" style="strokeWidth=2;html=1;shape=mxgraph.flowchart.terminator;whiteSpace=wrap;fontFamily=Times New Roman;" parent="WIyWlLk6GJQsqaUBKTNV-1" vertex="1">
          <mxGeometry x="870" y="310" width="120" height="40" as="geometry" />
        </mxCell>
        <mxCell id="C_fEFWVo3qg7ldsZDk-C-26" value="" style="strokeWidth=2;html=1;shape=mxgraph.flowchart.annotation_2;align=left;labelPosition=right;pointerEvents=1;fontFamily=Times New Roman;" parent="WIyWlLk6GJQsqaUBKTNV-1" vertex="1">
          <mxGeometry x="990" y="7" width="33" height="30" as="geometry" />
        </mxCell>
        <mxCell id="C_fEFWVo3qg7ldsZDk-C-27" value="static string LongestDigitSequanceInRow(string s)" style="text;strokeColor=none;fillColor=none;html=1;align=left;verticalAlign=middle;whiteSpace=wrap;rounded=0;fontSize=12;fontFamily=Times New Roman;" parent="WIyWlLk6GJQsqaUBKTNV-1" vertex="1">
          <mxGeometry x="1008" y="7" width="360" height="30" as="geometry" />
        </mxCell>
        <mxCell id="C_fEFWVo3qg7ldsZDk-C-100" style="edgeStyle=none;curved=1;rounded=0;orthogonalLoop=1;jettySize=auto;html=1;exitX=0.5;exitY=1;exitDx=0;exitDy=0;entryX=0.5;entryY=0;entryDx=0;entryDy=0;fontSize=12;startSize=8;endSize=8;fontFamily=Times New Roman;" parent="WIyWlLk6GJQsqaUBKTNV-1" source="C_fEFWVo3qg7ldsZDk-C-28" target="C_fEFWVo3qg7ldsZDk-C-38" edge="1">
          <mxGeometry relative="1" as="geometry" />
        </mxCell>
        <mxCell id="C_fEFWVo3qg7ldsZDk-C-28" value="int indRes, nRes = 0;" style="rounded=0;whiteSpace=wrap;html=1;fontFamily=Times New Roman;" parent="WIyWlLk6GJQsqaUBKTNV-1" vertex="1">
          <mxGeometry x="870" y="80" width="120" height="80" as="geometry" />
        </mxCell>
        <mxCell id="C_fEFWVo3qg7ldsZDk-C-31" value="&lt;span style=&quot;text-align: center; text-wrap: wrap;&quot;&gt;LongestDigitSequanceInRow(s, out&amp;nbsp; indRes, out nRes);&lt;br&gt;Вызов подпрограммы&lt;/span&gt;" style="strokeWidth=2;html=1;shape=mxgraph.flowchart.annotation_2;align=left;labelPosition=right;pointerEvents=1;fontFamily=Times New Roman;" parent="WIyWlLk6GJQsqaUBKTNV-1" vertex="1">
          <mxGeometry x="990" y="215" width="50" height="50" as="geometry" />
        </mxCell>
        <mxCell id="C_fEFWVo3qg7ldsZDk-C-58" style="edgeStyle=none;curved=1;rounded=0;orthogonalLoop=1;jettySize=auto;html=1;exitX=0.5;exitY=1;exitDx=0;exitDy=0;exitPerimeter=0;entryX=0.5;entryY=0;entryDx=0;entryDy=0;fontSize=12;startSize=8;endSize=8;fontFamily=Times New Roman;" parent="WIyWlLk6GJQsqaUBKTNV-1" source="C_fEFWVo3qg7ldsZDk-C-32" target="C_fEFWVo3qg7ldsZDk-C-36" edge="1">
          <mxGeometry relative="1" as="geometry" />
        </mxCell>
        <mxCell id="C_fEFWVo3qg7ldsZDk-C-32" value="Начало" style="strokeWidth=2;html=1;shape=mxgraph.flowchart.terminator;whiteSpace=wrap;fontFamily=Times New Roman;" parent="WIyWlLk6GJQsqaUBKTNV-1" vertex="1">
          <mxGeometry x="1400" y="2" width="120" height="40" as="geometry" />
        </mxCell>
        <mxCell id="C_fEFWVo3qg7ldsZDk-C-34" value="" style="strokeWidth=2;html=1;shape=mxgraph.flowchart.annotation_2;align=left;labelPosition=right;pointerEvents=1;fontFamily=Times New Roman;" parent="WIyWlLk6GJQsqaUBKTNV-1" vertex="1">
          <mxGeometry x="1520" y="7" width="33" height="30" as="geometry" />
        </mxCell>
        <mxCell id="C_fEFWVo3qg7ldsZDk-C-35" value="static string LongestDigitSequanceInRow(string s)" style="text;strokeColor=none;fillColor=none;html=1;align=left;verticalAlign=middle;whiteSpace=wrap;rounded=0;fontSize=12;fontFamily=Times New Roman;" parent="WIyWlLk6GJQsqaUBKTNV-1" vertex="1">
          <mxGeometry x="1538" y="5" width="360" height="30" as="geometry" />
        </mxCell>
        <mxCell id="C_fEFWVo3qg7ldsZDk-C-59" style="edgeStyle=none;curved=1;rounded=0;orthogonalLoop=1;jettySize=auto;html=1;exitX=0.5;exitY=1;exitDx=0;exitDy=0;fontSize=12;startSize=8;endSize=8;fontFamily=Times New Roman;" parent="WIyWlLk6GJQsqaUBKTNV-1" source="C_fEFWVo3qg7ldsZDk-C-36" target="C_fEFWVo3qg7ldsZDk-C-40" edge="1">
          <mxGeometry relative="1" as="geometry" />
        </mxCell>
        <mxCell id="C_fEFWVo3qg7ldsZDk-C-36" value="int indRes=0;&lt;div&gt;nRes = 0;&lt;/div&gt;&lt;div&gt;int n = 0;&lt;/div&gt;" style="rounded=0;whiteSpace=wrap;html=1;fontFamily=Times New Roman;" parent="WIyWlLk6GJQsqaUBKTNV-1" vertex="1">
          <mxGeometry x="1400" y="80" width="120" height="80" as="geometry" />
        </mxCell>
        <mxCell id="C_fEFWVo3qg7ldsZDk-C-38" value="return" style="rounded=0;whiteSpace=wrap;html=1;fontFamily=Times New Roman;" parent="WIyWlLk6GJQsqaUBKTNV-1" vertex="1">
          <mxGeometry x="870" y="200" width="120" height="80" as="geometry" />
        </mxCell>
        <mxCell id="C_fEFWVo3qg7ldsZDk-C-40" value="s == &quot;&quot;" style="rhombus;whiteSpace=wrap;html=1;fontFamily=Times New Roman;" parent="WIyWlLk6GJQsqaUBKTNV-1" vertex="1">
          <mxGeometry x="1400" y="200" width="120" height="80" as="geometry" />
        </mxCell>
        <mxCell id="C_fEFWVo3qg7ldsZDk-C-41" value="return &quot;&quot;" style="rounded=0;whiteSpace=wrap;html=1;fontFamily=Times New Roman;" parent="WIyWlLk6GJQsqaUBKTNV-1" vertex="1">
          <mxGeometry x="1800" y="290" width="120" height="80" as="geometry" />
        </mxCell>
        <mxCell id="C_fEFWVo3qg7ldsZDk-C-61" style="edgeStyle=none;curved=1;rounded=0;orthogonalLoop=1;jettySize=auto;html=1;exitX=0.5;exitY=1;exitDx=0;exitDy=0;exitPerimeter=0;fontSize=12;startSize=8;endSize=8;fontFamily=Times New Roman;" parent="WIyWlLk6GJQsqaUBKTNV-1" source="C_fEFWVo3qg7ldsZDk-C-42" target="C_fEFWVo3qg7ldsZDk-C-44" edge="1">
          <mxGeometry relative="1" as="geometry" />
        </mxCell>
        <mxCell id="C_fEFWVo3qg7ldsZDk-C-42" value="Цикл1&lt;div&gt;int i = 0;&amp;nbsp;&lt;/div&gt;&lt;div&gt;i &amp;lt; s.Length;&lt;br&gt;&lt;/div&gt;" style="strokeWidth=2;html=1;shape=mxgraph.flowchart.loop_limit;whiteSpace=wrap;fontFamily=Times New Roman;" parent="WIyWlLk6GJQsqaUBKTNV-1" vertex="1">
          <mxGeometry x="1400" y="310" width="120" height="80" as="geometry" />
        </mxCell>
        <mxCell id="C_fEFWVo3qg7ldsZDk-C-66" style="edgeStyle=none;curved=1;rounded=0;orthogonalLoop=1;jettySize=auto;html=1;exitX=0.5;exitY=0;exitDx=0;exitDy=0;exitPerimeter=0;entryX=0.5;entryY=0;entryDx=0;entryDy=0;fontSize=12;startSize=8;endSize=8;fontFamily=Times New Roman;" parent="WIyWlLk6GJQsqaUBKTNV-1" source="C_fEFWVo3qg7ldsZDk-C-43" target="C_fEFWVo3qg7ldsZDk-C-53" edge="1">
          <mxGeometry relative="1" as="geometry" />
        </mxCell>
        <mxCell id="C_fEFWVo3qg7ldsZDk-C-43" value="Цикл1&lt;br&gt;&amp;nbsp;i++;" style="strokeWidth=2;html=1;shape=mxgraph.flowchart.loop_limit;whiteSpace=wrap;flipH=1;flipV=1;fontFamily=Times New Roman;" parent="WIyWlLk6GJQsqaUBKTNV-1" vertex="1">
          <mxGeometry x="1400" y="862" width="120" height="80" as="geometry" />
        </mxCell>
        <mxCell id="C_fEFWVo3qg7ldsZDk-C-62" style="edgeStyle=none;curved=1;rounded=0;orthogonalLoop=1;jettySize=auto;html=1;exitX=0.5;exitY=1;exitDx=0;exitDy=0;entryX=0.5;entryY=0;entryDx=0;entryDy=0;fontSize=12;startSize=8;endSize=8;fontFamily=Times New Roman;" parent="WIyWlLk6GJQsqaUBKTNV-1" source="C_fEFWVo3qg7ldsZDk-C-44" target="C_fEFWVo3qg7ldsZDk-C-49" edge="1">
          <mxGeometry relative="1" as="geometry" />
        </mxCell>
        <mxCell id="C_fEFWVo3qg7ldsZDk-C-73" style="edgeStyle=none;curved=0;rounded=0;orthogonalLoop=1;jettySize=auto;html=1;fontSize=12;startSize=8;endSize=8;entryX=0.5;entryY=0;entryDx=0;entryDy=0;exitX=0.25;exitY=1;exitDx=0;exitDy=0;fontFamily=Times New Roman;" parent="WIyWlLk6GJQsqaUBKTNV-1" source="C_fEFWVo3qg7ldsZDk-C-85" target="C_fEFWVo3qg7ldsZDk-C-45" edge="1">
          <mxGeometry relative="1" as="geometry">
            <mxPoint x="1690" y="460" as="targetPoint" />
            <mxPoint x="1690" y="460" as="sourcePoint" />
            <Array as="points">
              <mxPoint x="1690" y="460" />
            </Array>
          </mxGeometry>
        </mxCell>
        <mxCell id="C_fEFWVo3qg7ldsZDk-C-44" value="(s[i] &amp;gt;= 48) &lt;br&gt;&amp;amp;&amp;amp; (s[i] &amp;lt;= 57)" style="rhombus;whiteSpace=wrap;html=1;fontFamily=Times New Roman;" parent="WIyWlLk6GJQsqaUBKTNV-1" vertex="1">
          <mxGeometry x="1400" y="420" width="120" height="80" as="geometry" />
        </mxCell>
        <mxCell id="C_fEFWVo3qg7ldsZDk-C-79" style="edgeStyle=none;curved=0;rounded=0;orthogonalLoop=1;jettySize=auto;html=1;fontSize=12;startSize=8;endSize=8;exitX=0.5;exitY=1;exitDx=0;exitDy=0;fontFamily=Times New Roman;" parent="WIyWlLk6GJQsqaUBKTNV-1" source="C_fEFWVo3qg7ldsZDk-C-45" edge="1">
          <mxGeometry relative="1" as="geometry">
            <mxPoint x="1461.5" y="849" as="targetPoint" />
            <mxPoint x="1690" y="849" as="sourcePoint" />
            <Array as="points">
              <mxPoint x="1690" y="849" />
            </Array>
          </mxGeometry>
        </mxCell>
        <mxCell id="C_fEFWVo3qg7ldsZDk-C-45" value="n=0" style="rounded=0;whiteSpace=wrap;html=1;fontFamily=Times New Roman;" parent="WIyWlLk6GJQsqaUBKTNV-1" vertex="1">
          <mxGeometry x="1630" y="530" width="120" height="80" as="geometry" />
        </mxCell>
        <mxCell id="C_fEFWVo3qg7ldsZDk-C-46" value="" style="group;fontFamily=Times New Roman;" parent="WIyWlLk6GJQsqaUBKTNV-1" vertex="1" connectable="0">
          <mxGeometry x="1400" y="1192" width="170" height="50" as="geometry" />
        </mxCell>
        <mxCell id="C_fEFWVo3qg7ldsZDk-C-33" value="Конец" style="strokeWidth=2;html=1;shape=mxgraph.flowchart.terminator;whiteSpace=wrap;fontFamily=Times New Roman;" parent="C_fEFWVo3qg7ldsZDk-C-46" vertex="1">
          <mxGeometry y="5" width="120" height="40" as="geometry" />
        </mxCell>
        <mxCell id="C_fEFWVo3qg7ldsZDk-C-63" style="edgeStyle=none;curved=1;rounded=0;orthogonalLoop=1;jettySize=auto;html=1;exitX=0.5;exitY=1;exitDx=0;exitDy=0;entryX=0.5;entryY=0;entryDx=0;entryDy=0;fontSize=12;startSize=8;endSize=8;fontFamily=Times New Roman;" parent="WIyWlLk6GJQsqaUBKTNV-1" source="C_fEFWVo3qg7ldsZDk-C-49" target="C_fEFWVo3qg7ldsZDk-C-51" edge="1">
          <mxGeometry relative="1" as="geometry" />
        </mxCell>
        <mxCell id="C_fEFWVo3qg7ldsZDk-C-49" value="n++" style="rounded=0;whiteSpace=wrap;html=1;fontFamily=Times New Roman;" parent="WIyWlLk6GJQsqaUBKTNV-1" vertex="1">
          <mxGeometry x="1400" y="530" width="120" height="80" as="geometry" />
        </mxCell>
        <mxCell id="C_fEFWVo3qg7ldsZDk-C-64" style="edgeStyle=none;curved=1;rounded=0;orthogonalLoop=1;jettySize=auto;html=1;exitX=0.5;exitY=1;exitDx=0;exitDy=0;entryX=0.5;entryY=0;entryDx=0;entryDy=0;fontSize=12;startSize=8;endSize=8;fontFamily=Times New Roman;" parent="WIyWlLk6GJQsqaUBKTNV-1" source="C_fEFWVo3qg7ldsZDk-C-51" target="C_fEFWVo3qg7ldsZDk-C-52" edge="1">
          <mxGeometry relative="1" as="geometry" />
        </mxCell>
        <mxCell id="C_fEFWVo3qg7ldsZDk-C-51" value="(nRes &amp;lt; n" style="rhombus;whiteSpace=wrap;html=1;fontFamily=Times New Roman;" parent="WIyWlLk6GJQsqaUBKTNV-1" vertex="1">
          <mxGeometry x="1400" y="640" width="120" height="80" as="geometry" />
        </mxCell>
        <mxCell id="C_fEFWVo3qg7ldsZDk-C-52" value="&lt;div&gt;&amp;nbsp;nRes = n;&lt;/div&gt;&lt;div&gt;&amp;nbsp;indRes = i;&lt;/div&gt;" style="rounded=0;whiteSpace=wrap;html=1;fontFamily=Times New Roman;" parent="WIyWlLk6GJQsqaUBKTNV-1" vertex="1">
          <mxGeometry x="1400" y="750" width="120" height="80" as="geometry" />
        </mxCell>
        <mxCell id="C_fEFWVo3qg7ldsZDk-C-67" style="edgeStyle=none;curved=1;rounded=0;orthogonalLoop=1;jettySize=auto;html=1;exitX=0.5;exitY=1;exitDx=0;exitDy=0;entryX=0.5;entryY=0;entryDx=0;entryDy=0;fontSize=12;startSize=8;endSize=8;fontFamily=Times New Roman;" parent="WIyWlLk6GJQsqaUBKTNV-1" source="C_fEFWVo3qg7ldsZDk-C-53" target="C_fEFWVo3qg7ldsZDk-C-54" edge="1">
          <mxGeometry relative="1" as="geometry" />
        </mxCell>
        <mxCell id="C_fEFWVo3qg7ldsZDk-C-53" value="indRes -= nRes - 1;" style="rounded=0;whiteSpace=wrap;html=1;fontFamily=Times New Roman;" parent="WIyWlLk6GJQsqaUBKTNV-1" vertex="1">
          <mxGeometry x="1400" y="962" width="120" height="80" as="geometry" />
        </mxCell>
        <mxCell id="C_fEFWVo3qg7ldsZDk-C-68" style="edgeStyle=none;curved=1;rounded=0;orthogonalLoop=1;jettySize=auto;html=1;exitX=0.5;exitY=1;exitDx=0;exitDy=0;fontSize=12;startSize=8;endSize=8;entryX=0.5;entryY=0;entryDx=0;entryDy=0;entryPerimeter=0;fontFamily=Times New Roman;" parent="WIyWlLk6GJQsqaUBKTNV-1" source="C_fEFWVo3qg7ldsZDk-C-54" target="C_fEFWVo3qg7ldsZDk-C-33" edge="1">
          <mxGeometry relative="1" as="geometry">
            <mxPoint x="1460" y="1172" as="targetPoint" />
          </mxGeometry>
        </mxCell>
        <mxCell id="C_fEFWVo3qg7ldsZDk-C-54" value="return s.Substring(indRes, nRes);" style="rounded=0;whiteSpace=wrap;html=1;fontFamily=Times New Roman;" parent="WIyWlLk6GJQsqaUBKTNV-1" vertex="1">
          <mxGeometry x="1400" y="1072" width="120" height="80" as="geometry" />
        </mxCell>
        <mxCell id="C_fEFWVo3qg7ldsZDk-C-60" style="edgeStyle=none;curved=1;rounded=0;orthogonalLoop=1;jettySize=auto;html=1;exitX=0.5;exitY=1;exitDx=0;exitDy=0;entryX=0.5;entryY=0;entryDx=0;entryDy=0;entryPerimeter=0;fontSize=12;startSize=8;endSize=8;fontFamily=Times New Roman;" parent="WIyWlLk6GJQsqaUBKTNV-1" source="C_fEFWVo3qg7ldsZDk-C-40" target="C_fEFWVo3qg7ldsZDk-C-42" edge="1">
          <mxGeometry relative="1" as="geometry" />
        </mxCell>
        <mxCell id="C_fEFWVo3qg7ldsZDk-C-65" style="edgeStyle=none;curved=1;rounded=0;orthogonalLoop=1;jettySize=auto;html=1;exitX=0.5;exitY=1;exitDx=0;exitDy=0;entryX=0.5;entryY=1;entryDx=0;entryDy=0;entryPerimeter=0;fontSize=12;startSize=8;endSize=8;fontFamily=Times New Roman;" parent="WIyWlLk6GJQsqaUBKTNV-1" source="C_fEFWVo3qg7ldsZDk-C-52" target="C_fEFWVo3qg7ldsZDk-C-43" edge="1">
          <mxGeometry relative="1" as="geometry" />
        </mxCell>
        <mxCell id="C_fEFWVo3qg7ldsZDk-C-81" value="" style="endArrow=classic;html=1;rounded=0;fontSize=12;startSize=8;endSize=8;curved=1;exitX=1;exitY=0.5;exitDx=0;exitDy=0;fontFamily=Times New Roman;" parent="WIyWlLk6GJQsqaUBKTNV-1" source="C_fEFWVo3qg7ldsZDk-C-51" edge="1">
          <mxGeometry width="50" height="50" relative="1" as="geometry">
            <mxPoint x="1620" y="720" as="sourcePoint" />
            <mxPoint x="1690" y="680" as="targetPoint" />
          </mxGeometry>
        </mxCell>
        <mxCell id="C_fEFWVo3qg7ldsZDk-C-82" value="Нет" style="text;strokeColor=none;fillColor=none;html=1;align=center;verticalAlign=middle;whiteSpace=wrap;rounded=0;fontSize=16;fontFamily=Times New Roman;" parent="WIyWlLk6GJQsqaUBKTNV-1" vertex="1">
          <mxGeometry x="1510" y="650" width="60" height="30" as="geometry" />
        </mxCell>
        <mxCell id="C_fEFWVo3qg7ldsZDk-C-83" value="Да" style="text;strokeColor=none;fillColor=none;html=1;align=center;verticalAlign=middle;whiteSpace=wrap;rounded=0;fontSize=16;fontFamily=Times New Roman;" parent="WIyWlLk6GJQsqaUBKTNV-1" vertex="1">
          <mxGeometry x="1450" y="710" width="60" height="30" as="geometry" />
        </mxCell>
        <mxCell id="C_fEFWVo3qg7ldsZDk-C-84" value="Да" style="text;strokeColor=none;fillColor=none;html=1;align=center;verticalAlign=middle;whiteSpace=wrap;rounded=0;fontSize=16;fontFamily=Times New Roman;" parent="WIyWlLk6GJQsqaUBKTNV-1" vertex="1">
          <mxGeometry x="1450" y="490" width="60" height="30" as="geometry" />
        </mxCell>
        <mxCell id="C_fEFWVo3qg7ldsZDk-C-85" value="Нет" style="text;strokeColor=none;fillColor=none;html=1;align=center;verticalAlign=middle;whiteSpace=wrap;rounded=0;fontSize=16;fontFamily=Times New Roman;" parent="WIyWlLk6GJQsqaUBKTNV-1" vertex="1">
          <mxGeometry x="1506.5" y="430" width="60" height="30" as="geometry" />
        </mxCell>
        <mxCell id="C_fEFWVo3qg7ldsZDk-C-88" value="" style="endArrow=classic;html=1;rounded=0;fontSize=12;startSize=8;endSize=8;curved=0;entryX=0.5;entryY=0;entryDx=0;entryDy=0;exitX=1;exitY=0.5;exitDx=0;exitDy=0;fontFamily=Times New Roman;" parent="WIyWlLk6GJQsqaUBKTNV-1" source="C_fEFWVo3qg7ldsZDk-C-40" target="C_fEFWVo3qg7ldsZDk-C-41" edge="1">
          <mxGeometry width="50" height="50" relative="1" as="geometry">
            <mxPoint x="1860" y="240" as="sourcePoint" />
            <mxPoint x="1750" y="270" as="targetPoint" />
            <Array as="points">
              <mxPoint x="1860" y="240" />
            </Array>
          </mxGeometry>
        </mxCell>
        <mxCell id="C_fEFWVo3qg7ldsZDk-C-90" value="" style="endArrow=classic;html=1;rounded=0;fontSize=12;startSize=8;endSize=8;curved=0;exitX=0.5;exitY=1;exitDx=0;exitDy=0;fontFamily=Times New Roman;" parent="WIyWlLk6GJQsqaUBKTNV-1" source="C_fEFWVo3qg7ldsZDk-C-41" edge="1">
          <mxGeometry width="50" height="50" relative="1" as="geometry">
            <mxPoint x="1860" y="1170" as="sourcePoint" />
            <mxPoint x="1460" y="1170" as="targetPoint" />
            <Array as="points">
              <mxPoint x="1860" y="1170" />
            </Array>
          </mxGeometry>
        </mxCell>
        <mxCell id="C_fEFWVo3qg7ldsZDk-C-97" style="edgeStyle=none;curved=1;rounded=0;orthogonalLoop=1;jettySize=auto;html=1;exitX=0.5;exitY=1;exitDx=0;exitDy=0;fontSize=12;startSize=8;endSize=8;fontFamily=Times New Roman;" parent="WIyWlLk6GJQsqaUBKTNV-1" source="C_fEFWVo3qg7ldsZDk-C-18" edge="1">
          <mxGeometry relative="1" as="geometry">
            <mxPoint x="220" y="419" as="targetPoint" />
          </mxGeometry>
        </mxCell>
        <mxCell id="C_fEFWVo3qg7ldsZDk-C-98" style="edgeStyle=none;curved=1;rounded=0;orthogonalLoop=1;jettySize=auto;html=1;fontSize=12;startSize=8;endSize=8;fontFamily=Times New Roman;" parent="WIyWlLk6GJQsqaUBKTNV-1" edge="1">
          <mxGeometry relative="1" as="geometry">
            <mxPoint x="220" y="500" as="sourcePoint" />
            <mxPoint x="220" y="530" as="targetPoint" />
          </mxGeometry>
        </mxCell>
        <mxCell id="C_fEFWVo3qg7ldsZDk-C-101" style="edgeStyle=none;curved=1;rounded=0;orthogonalLoop=1;jettySize=auto;html=1;exitX=0.5;exitY=1;exitDx=0;exitDy=0;entryX=0.5;entryY=0;entryDx=0;entryDy=0;entryPerimeter=0;fontSize=12;startSize=8;endSize=8;fontFamily=Times New Roman;" parent="WIyWlLk6GJQsqaUBKTNV-1" source="C_fEFWVo3qg7ldsZDk-C-38" target="C_fEFWVo3qg7ldsZDk-C-25" edge="1">
          <mxGeometry relative="1" as="geometry" />
        </mxCell>
        <mxCell id="C_fEFWVo3qg7ldsZDk-C-106" style="edgeStyle=none;curved=1;rounded=0;orthogonalLoop=1;jettySize=auto;html=1;exitX=0.5;exitY=1;exitDx=0;exitDy=0;exitPerimeter=0;entryX=0.5;entryY=0;entryDx=0;entryDy=0;fontSize=12;startSize=8;endSize=8;fontFamily=Times New Roman;" parent="WIyWlLk6GJQsqaUBKTNV-1" source="C_fEFWVo3qg7ldsZDk-C-102" target="C_fEFWVo3qg7ldsZDk-C-105" edge="1">
          <mxGeometry relative="1" as="geometry" />
        </mxCell>
        <mxCell id="C_fEFWVo3qg7ldsZDk-C-102" value="Начало" style="strokeWidth=2;html=1;shape=mxgraph.flowchart.terminator;whiteSpace=wrap;fontFamily=Times New Roman;" parent="WIyWlLk6GJQsqaUBKTNV-1" vertex="1">
          <mxGeometry x="1983" y="20" width="120" height="40" as="geometry" />
        </mxCell>
        <mxCell id="C_fEFWVo3qg7ldsZDk-C-103" value="" style="strokeWidth=2;html=1;shape=mxgraph.flowchart.annotation_2;align=left;labelPosition=right;pointerEvents=1;fontFamily=Times New Roman;" parent="WIyWlLk6GJQsqaUBKTNV-1" vertex="1">
          <mxGeometry x="2103" y="25" width="33" height="30" as="geometry" />
        </mxCell>
        <mxCell id="C_fEFWVo3qg7ldsZDk-C-104" value="static string removeLongestDigitsSequence(string s)" style="text;strokeColor=none;fillColor=none;html=1;align=left;verticalAlign=middle;whiteSpace=wrap;rounded=0;fontSize=12;fontFamily=Times New Roman;" parent="WIyWlLk6GJQsqaUBKTNV-1" vertex="1">
          <mxGeometry x="2121" y="25" width="360" height="30" as="geometry" />
        </mxCell>
        <mxCell id="C_fEFWVo3qg7ldsZDk-C-108" value="" style="edgeStyle=none;curved=1;rounded=0;orthogonalLoop=1;jettySize=auto;html=1;fontSize=12;startSize=8;endSize=8;fontFamily=Times New Roman;" parent="WIyWlLk6GJQsqaUBKTNV-1" source="C_fEFWVo3qg7ldsZDk-C-105" target="C_fEFWVo3qg7ldsZDk-C-107" edge="1">
          <mxGeometry relative="1" as="geometry" />
        </mxCell>
        <mxCell id="C_fEFWVo3qg7ldsZDk-C-105" value="int indRes, nRes, nResFirst=0;" style="rounded=0;whiteSpace=wrap;html=1;fontFamily=Times New Roman;" parent="WIyWlLk6GJQsqaUBKTNV-1" vertex="1">
          <mxGeometry x="1983" y="80" width="120" height="80" as="geometry" />
        </mxCell>
        <mxCell id="C_fEFWVo3qg7ldsZDk-C-110" style="edgeStyle=none;curved=1;rounded=0;orthogonalLoop=1;jettySize=auto;html=1;exitX=0.5;exitY=1;exitDx=0;exitDy=0;entryX=0.5;entryY=0;entryDx=0;entryDy=0;fontSize=12;startSize=8;endSize=8;fontFamily=Times New Roman;" parent="WIyWlLk6GJQsqaUBKTNV-1" source="C_fEFWVo3qg7ldsZDk-C-107" target="C_fEFWVo3qg7ldsZDk-C-109" edge="1">
          <mxGeometry relative="1" as="geometry" />
        </mxCell>
        <mxCell id="C_fEFWVo3qg7ldsZDk-C-107" value="LongestDigitSequanceInRow(&lt;div style=&quot;font-size: 8px;&quot;&gt;s, out indRes, out nResFirst);&lt;/div&gt;" style="shape=process;whiteSpace=wrap;html=1;backgroundOutline=1;fontFamily=Times New Roman;rounded=0;fontSize=8;size=0.058333333333333334;" parent="WIyWlLk6GJQsqaUBKTNV-1" vertex="1">
          <mxGeometry x="1983" y="200" width="120" height="80" as="geometry" />
        </mxCell>
        <mxCell id="C_fEFWVo3qg7ldsZDk-C-113" style="edgeStyle=none;curved=1;rounded=0;orthogonalLoop=1;jettySize=auto;html=1;exitX=0.5;exitY=1;exitDx=0;exitDy=0;entryX=0.5;entryY=0;entryDx=0;entryDy=0;fontSize=12;startSize=8;endSize=8;fontFamily=Times New Roman;" parent="WIyWlLk6GJQsqaUBKTNV-1" source="C_fEFWVo3qg7ldsZDk-C-109" target="C_fEFWVo3qg7ldsZDk-C-111" edge="1">
          <mxGeometry relative="1" as="geometry" />
        </mxCell>
        <mxCell id="C_fEFWVo3qg7ldsZDk-C-109" value="int indRes, nRes, nResFirst=0;" style="rounded=0;whiteSpace=wrap;html=1;fontFamily=Times New Roman;" parent="WIyWlLk6GJQsqaUBKTNV-1" vertex="1">
          <mxGeometry x="1983" y="310" width="120" height="80" as="geometry" />
        </mxCell>
        <mxCell id="C_fEFWVo3qg7ldsZDk-C-114" style="edgeStyle=none;curved=1;rounded=0;orthogonalLoop=1;jettySize=auto;html=1;exitX=0.5;exitY=1;exitDx=0;exitDy=0;entryX=0.5;entryY=0;entryDx=0;entryDy=0;fontSize=12;startSize=8;endSize=8;fontFamily=Times New Roman;" parent="WIyWlLk6GJQsqaUBKTNV-1" source="C_fEFWVo3qg7ldsZDk-C-111" target="C_fEFWVo3qg7ldsZDk-C-112" edge="1">
          <mxGeometry relative="1" as="geometry" />
        </mxCell>
        <mxCell id="C_fEFWVo3qg7ldsZDk-C-111" value="s = s.Substring(0, indRes) + s.Substring(indRes + nRes);&amp;nbsp;" style="rounded=0;whiteSpace=wrap;html=1;fontFamily=Times New Roman;" parent="WIyWlLk6GJQsqaUBKTNV-1" vertex="1">
          <mxGeometry x="1983" y="420" width="120" height="80" as="geometry" />
        </mxCell>
        <mxCell id="C_fEFWVo3qg7ldsZDk-C-122" style="edgeStyle=none;curved=1;rounded=0;orthogonalLoop=1;jettySize=auto;html=1;exitX=0.5;exitY=1;exitDx=0;exitDy=0;entryX=0.5;entryY=0;entryDx=0;entryDy=0;fontSize=12;startSize=8;endSize=8;" parent="WIyWlLk6GJQsqaUBKTNV-1" source="C_fEFWVo3qg7ldsZDk-C-112" target="C_fEFWVo3qg7ldsZDk-C-116" edge="1">
          <mxGeometry relative="1" as="geometry" />
        </mxCell>
        <mxCell id="C_fEFWVo3qg7ldsZDk-C-112" value="LongestDigitSequanceInRow(&lt;div&gt;s, out indRes, out nRes);&lt;/div&gt;" style="shape=process;whiteSpace=wrap;html=1;backgroundOutline=1;fontFamily=Times New Roman;rounded=0;fontSize=8;size=0.058333333333333334;" parent="WIyWlLk6GJQsqaUBKTNV-1" vertex="1">
          <mxGeometry x="1983" y="530" width="120" height="80" as="geometry" />
        </mxCell>
        <mxCell id="C_fEFWVo3qg7ldsZDk-C-123" style="edgeStyle=none;curved=1;rounded=0;orthogonalLoop=1;jettySize=auto;html=1;exitX=0.5;exitY=1;exitDx=0;exitDy=0;entryX=0.5;entryY=0;entryDx=0;entryDy=0;fontSize=12;startSize=8;endSize=8;" parent="WIyWlLk6GJQsqaUBKTNV-1" source="C_fEFWVo3qg7ldsZDk-C-116" target="C_fEFWVo3qg7ldsZDk-C-117" edge="1">
          <mxGeometry relative="1" as="geometry" />
        </mxCell>
        <mxCell id="C_fEFWVo3qg7ldsZDk-C-125" style="edgeStyle=none;curved=0;rounded=0;orthogonalLoop=1;jettySize=auto;html=1;exitX=1;exitY=0.5;exitDx=0;exitDy=0;fontSize=12;startSize=8;endSize=8;" parent="WIyWlLk6GJQsqaUBKTNV-1" source="C_fEFWVo3qg7ldsZDk-C-116" edge="1">
          <mxGeometry relative="1" as="geometry">
            <mxPoint x="2043" y="400" as="targetPoint" />
            <Array as="points">
              <mxPoint x="2230" y="680" />
              <mxPoint x="2230" y="400" />
            </Array>
          </mxGeometry>
        </mxCell>
        <mxCell id="C_fEFWVo3qg7ldsZDk-C-116" value="(nRes == &lt;br&gt;nResFirst) &lt;br&gt;&amp;amp;&amp;amp; (nRes &lt;br&gt;!= 0)" style="rhombus;whiteSpace=wrap;html=1;fontFamily=Times New Roman;" parent="WIyWlLk6GJQsqaUBKTNV-1" vertex="1">
          <mxGeometry x="1983" y="640" width="120" height="80" as="geometry" />
        </mxCell>
        <mxCell id="C_fEFWVo3qg7ldsZDk-C-117" value="return s" style="rounded=0;whiteSpace=wrap;html=1;fontFamily=Times New Roman;" parent="WIyWlLk6GJQsqaUBKTNV-1" vertex="1">
          <mxGeometry x="1983" y="750" width="120" height="80" as="geometry" />
        </mxCell>
        <mxCell id="C_fEFWVo3qg7ldsZDk-C-119" value="" style="group;fontFamily=Times New Roman;" parent="WIyWlLk6GJQsqaUBKTNV-1" vertex="1" connectable="0">
          <mxGeometry x="1983" y="860" width="170" height="50" as="geometry" />
        </mxCell>
        <mxCell id="C_fEFWVo3qg7ldsZDk-C-120" value="Конец" style="strokeWidth=2;html=1;shape=mxgraph.flowchart.terminator;whiteSpace=wrap;fontFamily=Times New Roman;" parent="C_fEFWVo3qg7ldsZDk-C-119" vertex="1">
          <mxGeometry y="5" width="120" height="40" as="geometry" />
        </mxCell>
        <mxCell id="C_fEFWVo3qg7ldsZDk-C-124" style="edgeStyle=none;curved=1;rounded=0;orthogonalLoop=1;jettySize=auto;html=1;exitX=0.5;exitY=1;exitDx=0;exitDy=0;entryX=0.5;entryY=0;entryDx=0;entryDy=0;entryPerimeter=0;fontSize=12;startSize=8;endSize=8;" parent="WIyWlLk6GJQsqaUBKTNV-1" source="C_fEFWVo3qg7ldsZDk-C-117" target="C_fEFWVo3qg7ldsZDk-C-120" edge="1">
          <mxGeometry relative="1" as="geometry" />
        </mxCell>
        <mxCell id="C_fEFWVo3qg7ldsZDk-C-126" value="" style="endArrow=classic;html=1;rounded=0;fontSize=12;startSize=8;endSize=8;curved=1;" parent="WIyWlLk6GJQsqaUBKTNV-1" edge="1">
          <mxGeometry width="50" height="50" relative="1" as="geometry">
            <mxPoint x="2230" y="680" as="sourcePoint" />
            <mxPoint x="2230" y="400" as="targetPoint" />
          </mxGeometry>
        </mxCell>
        <mxCell id="C_fEFWVo3qg7ldsZDk-C-129" style="edgeStyle=none;curved=1;rounded=0;orthogonalLoop=1;jettySize=auto;html=1;exitX=0.5;exitY=1;exitDx=0;exitDy=0;fontSize=12;startSize=8;endSize=8;" parent="WIyWlLk6GJQsqaUBKTNV-1" source="C_fEFWVo3qg7ldsZDk-C-127" target="C_fEFWVo3qg7ldsZDk-C-4" edge="1">
          <mxGeometry relative="1" as="geometry" />
        </mxCell>
        <mxCell id="C_fEFWVo3qg7ldsZDk-C-127" value="&lt;div&gt;Ввод&lt;br&gt;Ожидание ввода клавиши&lt;/div&gt;" style="shape=parallelogram;perimeter=parallelogramPerimeter;whiteSpace=wrap;html=1;fixedSize=1;fontFamily=Times New Roman;" parent="WIyWlLk6GJQsqaUBKTNV-1" vertex="1">
          <mxGeometry x="160" y="530" width="120" height="80" as="geometry" />
        </mxCell>
        <mxCell id="H1qVcyVTpbuyozmzhnAa-29" style="edgeStyle=none;curved=1;rounded=0;orthogonalLoop=1;jettySize=auto;html=1;fontSize=12;startSize=8;endSize=8;" parent="WIyWlLk6GJQsqaUBKTNV-1" source="H1qVcyVTpbuyozmzhnAa-1" target="H1qVcyVTpbuyozmzhnAa-3" edge="1">
          <mxGeometry relative="1" as="geometry" />
        </mxCell>
        <mxCell id="H1qVcyVTpbuyozmzhnAa-1" value="Начало" style="strokeWidth=2;html=1;shape=mxgraph.flowchart.terminator;whiteSpace=wrap;fontFamily=Times New Roman;" parent="WIyWlLk6GJQsqaUBKTNV-1" vertex="1">
          <mxGeometry x="140" y="1480" width="120" height="40" as="geometry" />
        </mxCell>
        <mxCell id="H1qVcyVTpbuyozmzhnAa-2" value="Конец" style="strokeWidth=2;html=1;shape=mxgraph.flowchart.terminator;whiteSpace=wrap;fontFamily=Times New Roman;" parent="WIyWlLk6GJQsqaUBKTNV-1" vertex="1">
          <mxGeometry x="835" y="2401" width="120" height="40" as="geometry" />
        </mxCell>
        <mxCell id="H1qVcyVTpbuyozmzhnAa-30" style="edgeStyle=none;curved=1;rounded=0;orthogonalLoop=1;jettySize=auto;html=1;fontSize=12;startSize=8;endSize=8;" parent="WIyWlLk6GJQsqaUBKTNV-1" source="H1qVcyVTpbuyozmzhnAa-3" target="H1qVcyVTpbuyozmzhnAa-4" edge="1">
          <mxGeometry relative="1" as="geometry" />
        </mxCell>
        <mxCell id="H1qVcyVTpbuyozmzhnAa-3" value="int[][] massives = 0;" style="rounded=0;whiteSpace=wrap;html=1;fontFamily=Times New Roman;" parent="WIyWlLk6GJQsqaUBKTNV-1" vertex="1">
          <mxGeometry x="140" y="1560" width="120" height="80" as="geometry" />
        </mxCell>
        <mxCell id="H1qVcyVTpbuyozmzhnAa-4" value="Вывод&lt;div&gt;&lt;br&gt;&lt;/div&gt;" style="shape=parallelogram;perimeter=parallelogramPerimeter;whiteSpace=wrap;html=1;fixedSize=1;fontFamily=Times New Roman;" parent="WIyWlLk6GJQsqaUBKTNV-1" vertex="1">
          <mxGeometry x="140" y="1680" width="120" height="80" as="geometry" />
        </mxCell>
        <mxCell id="H1qVcyVTpbuyozmzhnAa-5" value="&lt;span style=&quot;color: rgba(0, 0, 0, 0); font-size: 0px;&quot;&gt;в&lt;/span&gt;" style="strokeWidth=2;html=1;shape=mxgraph.flowchart.annotation_2;align=left;labelPosition=right;pointerEvents=1;fontFamily=Times New Roman;" parent="WIyWlLk6GJQsqaUBKTNV-1" vertex="1">
          <mxGeometry x="250" y="1670" width="80" height="100" as="geometry" />
        </mxCell>
        <mxCell id="H1qVcyVTpbuyozmzhnAa-6" value="&lt;div style=&quot;&quot;&gt;Вам будет предложено выбрать длину массива чисел,&lt;br&gt;а потом выбрать тип заполнения этого массива (вручную или случайным образом.&lt;br&gt;Если максимум массива будет чётным, то в этом массиве будут занулены чётные элементы.&lt;br&gt;&lt;/div&gt;" style="text;strokeColor=none;fillColor=none;html=1;align=left;verticalAlign=middle;whiteSpace=wrap;rounded=0;fontSize=12;movable=1;resizable=1;rotatable=1;deletable=1;editable=1;locked=0;connectable=1;fontFamily=Times New Roman;" parent="WIyWlLk6GJQsqaUBKTNV-1" vertex="1">
          <mxGeometry x="300" y="1680" width="520" height="80" as="geometry" />
        </mxCell>
        <mxCell id="H1qVcyVTpbuyozmzhnAa-32" style="edgeStyle=none;curved=1;rounded=0;orthogonalLoop=1;jettySize=auto;html=1;entryX=0.5;entryY=0;entryDx=0;entryDy=0;fontSize=12;startSize=8;endSize=8;" parent="WIyWlLk6GJQsqaUBKTNV-1" source="H1qVcyVTpbuyozmzhnAa-7" target="H1qVcyVTpbuyozmzhnAa-9" edge="1">
          <mxGeometry relative="1" as="geometry" />
        </mxCell>
        <mxCell id="H1qVcyVTpbuyozmzhnAa-7" value="Цикл1&lt;div&gt;int i = 0;&amp;nbsp;&lt;/div&gt;&lt;div&gt;i &amp;lt; massives.Length;&lt;br&gt;&lt;/div&gt;" style="strokeWidth=2;html=1;shape=mxgraph.flowchart.loop_limit;whiteSpace=wrap;fontFamily=Times New Roman;" parent="WIyWlLk6GJQsqaUBKTNV-1" vertex="1">
          <mxGeometry x="140" y="1800" width="120" height="80" as="geometry" />
        </mxCell>
        <mxCell id="H1qVcyVTpbuyozmzhnAa-45" style="edgeStyle=none;curved=1;rounded=0;orthogonalLoop=1;jettySize=auto;html=1;entryX=0.5;entryY=0;entryDx=0;entryDy=0;fontSize=12;startSize=8;endSize=8;" parent="WIyWlLk6GJQsqaUBKTNV-1" source="H1qVcyVTpbuyozmzhnAa-8" target="H1qVcyVTpbuyozmzhnAa-16" edge="1">
          <mxGeometry relative="1" as="geometry" />
        </mxCell>
        <mxCell id="H1qVcyVTpbuyozmzhnAa-8" value="Цикл1&lt;br&gt;&amp;nbsp;i++;" style="strokeWidth=2;html=1;shape=mxgraph.flowchart.loop_limit;whiteSpace=wrap;flipH=1;flipV=1;fontFamily=Times New Roman;" parent="WIyWlLk6GJQsqaUBKTNV-1" vertex="1">
          <mxGeometry x="835" y="2161" width="120" height="80" as="geometry" />
        </mxCell>
        <mxCell id="H1qVcyVTpbuyozmzhnAa-33" style="edgeStyle=none;curved=1;rounded=0;orthogonalLoop=1;jettySize=auto;html=1;entryX=0.5;entryY=0;entryDx=0;entryDy=0;fontSize=12;startSize=8;endSize=8;" parent="WIyWlLk6GJQsqaUBKTNV-1" source="H1qVcyVTpbuyozmzhnAa-9" target="H1qVcyVTpbuyozmzhnAa-10" edge="1">
          <mxGeometry relative="1" as="geometry" />
        </mxCell>
        <mxCell id="H1qVcyVTpbuyozmzhnAa-9" value="coloredWriteLine(&lt;br style=&quot;font-size: 10px;&quot;&gt;$&quot;\n{i+1}-ый массив:&quot;, ConsoleColor.Yellow);" style="shape=process;whiteSpace=wrap;html=1;backgroundOutline=1;fontFamily=Times New Roman;rounded=0;fontSize=10;size=0.058333333333333334;" parent="WIyWlLk6GJQsqaUBKTNV-1" vertex="1">
          <mxGeometry x="140" y="1920" width="120" height="80" as="geometry" />
        </mxCell>
        <mxCell id="H1qVcyVTpbuyozmzhnAa-34" style="edgeStyle=none;curved=1;rounded=0;orthogonalLoop=1;jettySize=auto;html=1;entryX=0.5;entryY=0;entryDx=0;entryDy=0;fontSize=12;startSize=8;endSize=8;" parent="WIyWlLk6GJQsqaUBKTNV-1" source="H1qVcyVTpbuyozmzhnAa-10" target="H1qVcyVTpbuyozmzhnAa-11" edge="1">
          <mxGeometry relative="1" as="geometry" />
        </mxCell>
        <mxCell id="H1qVcyVTpbuyozmzhnAa-10" value="inputMassivesFromConsole(&lt;br style=&quot;font-size: 9px;&quot;&gt;ref massives[i]);" style="shape=process;whiteSpace=wrap;html=1;backgroundOutline=1;fontFamily=Times New Roman;rounded=0;fontSize=9;size=0.058333333333333334;" parent="WIyWlLk6GJQsqaUBKTNV-1" vertex="1">
          <mxGeometry x="140" y="2040" width="120" height="80" as="geometry" />
        </mxCell>
        <mxCell id="H1qVcyVTpbuyozmzhnAa-35" style="edgeStyle=none;curved=1;rounded=0;orthogonalLoop=1;jettySize=auto;html=1;fontSize=12;startSize=8;endSize=8;" parent="WIyWlLk6GJQsqaUBKTNV-1" source="H1qVcyVTpbuyozmzhnAa-11" target="H1qVcyVTpbuyozmzhnAa-12" edge="1">
          <mxGeometry relative="1" as="geometry" />
        </mxCell>
        <mxCell id="H1qVcyVTpbuyozmzhnAa-11" value="coloredWriteLine($&quot;Вывод {i+1}-го массив:&quot;, ConsoleColor.Green);" style="shape=process;whiteSpace=wrap;html=1;backgroundOutline=1;fontFamily=Times New Roman;rounded=0;fontSize=9;size=0.058333333333333334;" parent="WIyWlLk6GJQsqaUBKTNV-1" vertex="1">
          <mxGeometry x="140" y="2160" width="120" height="80" as="geometry" />
        </mxCell>
        <mxCell id="H1qVcyVTpbuyozmzhnAa-36" style="edgeStyle=none;curved=1;rounded=0;orthogonalLoop=1;jettySize=auto;html=1;entryX=0.5;entryY=0;entryDx=0;entryDy=0;fontSize=12;startSize=8;endSize=8;" parent="WIyWlLk6GJQsqaUBKTNV-1" source="H1qVcyVTpbuyozmzhnAa-12" target="H1qVcyVTpbuyozmzhnAa-13" edge="1">
          <mxGeometry relative="1" as="geometry" />
        </mxCell>
        <mxCell id="H1qVcyVTpbuyozmzhnAa-12" value="outputMassivesToConsole(&lt;br&gt;massives[i]);" style="shape=process;whiteSpace=wrap;html=1;backgroundOutline=1;fontFamily=Times New Roman;rounded=0;fontSize=9;size=0.058333333333333334;" parent="WIyWlLk6GJQsqaUBKTNV-1" vertex="1">
          <mxGeometry x="140" y="2280" width="120" height="80" as="geometry" />
        </mxCell>
        <mxCell id="H1qVcyVTpbuyozmzhnAa-37" style="edgeStyle=none;curved=1;rounded=0;orthogonalLoop=1;jettySize=auto;html=1;entryX=0.5;entryY=0;entryDx=0;entryDy=0;fontSize=12;startSize=8;endSize=8;" parent="WIyWlLk6GJQsqaUBKTNV-1" source="H1qVcyVTpbuyozmzhnAa-13" target="H1qVcyVTpbuyozmzhnAa-26" edge="1">
          <mxGeometry relative="1" as="geometry" />
        </mxCell>
        <mxCell id="H1qVcyVTpbuyozmzhnAa-13" value="outputMassivesToConsole(&lt;br&gt;massives[i]);" style="shape=process;whiteSpace=wrap;html=1;backgroundOutline=1;fontFamily=Times New Roman;rounded=0;fontSize=9;size=0.058333333333333334;" parent="WIyWlLk6GJQsqaUBKTNV-1" vertex="1">
          <mxGeometry x="140" y="2400" width="120" height="80" as="geometry" />
        </mxCell>
        <mxCell id="H1qVcyVTpbuyozmzhnAa-40" style="edgeStyle=none;curved=1;rounded=0;orthogonalLoop=1;jettySize=auto;html=1;entryX=0.5;entryY=0;entryDx=0;entryDy=0;fontSize=12;startSize=8;endSize=8;" parent="WIyWlLk6GJQsqaUBKTNV-1" source="H1qVcyVTpbuyozmzhnAa-15" target="H1qVcyVTpbuyozmzhnAa-17" edge="1">
          <mxGeometry relative="1" as="geometry" />
        </mxCell>
        <mxCell id="H1qVcyVTpbuyozmzhnAa-15" value="int max = findMax(massives[i]);" style="shape=process;whiteSpace=wrap;html=1;backgroundOutline=1;fontFamily=Times New Roman;rounded=0;fontSize=9;size=0.058333333333333334;" parent="WIyWlLk6GJQsqaUBKTNV-1" vertex="1">
          <mxGeometry x="835" y="1560" width="120" height="80" as="geometry" />
        </mxCell>
        <mxCell id="H1qVcyVTpbuyozmzhnAa-16" value="&lt;div&gt;Ввод&lt;br&gt;Ожидание ввода клавиши&lt;/div&gt;" style="shape=parallelogram;perimeter=parallelogramPerimeter;whiteSpace=wrap;html=1;fixedSize=1;fontFamily=Times New Roman;" parent="WIyWlLk6GJQsqaUBKTNV-1" vertex="1">
          <mxGeometry x="835" y="2283" width="120" height="80" as="geometry" />
        </mxCell>
        <mxCell id="H1qVcyVTpbuyozmzhnAa-41" style="edgeStyle=none;curved=1;rounded=0;orthogonalLoop=1;jettySize=auto;html=1;entryX=0.5;entryY=0;entryDx=0;entryDy=0;fontSize=12;startSize=8;endSize=8;" parent="WIyWlLk6GJQsqaUBKTNV-1" source="H1qVcyVTpbuyozmzhnAa-17" target="H1qVcyVTpbuyozmzhnAa-20" edge="1">
          <mxGeometry relative="1" as="geometry" />
        </mxCell>
        <mxCell id="H1qVcyVTpbuyozmzhnAa-17" value="&amp;nbsp;max % 2 == 0" style="rhombus;whiteSpace=wrap;html=1;fontFamily=Times New Roman;" parent="WIyWlLk6GJQsqaUBKTNV-1" vertex="1">
          <mxGeometry x="835" y="1680" width="120" height="80" as="geometry" />
        </mxCell>
        <mxCell id="H1qVcyVTpbuyozmzhnAa-18" value="Да" style="text;strokeColor=none;fillColor=none;html=1;align=center;verticalAlign=middle;whiteSpace=wrap;rounded=0;fontSize=16;fontFamily=Times New Roman;" parent="WIyWlLk6GJQsqaUBKTNV-1" vertex="1">
          <mxGeometry x="885" y="1750" width="60" height="30" as="geometry" />
        </mxCell>
        <mxCell id="H1qVcyVTpbuyozmzhnAa-47" style="edgeStyle=none;curved=0;rounded=0;orthogonalLoop=1;jettySize=auto;html=1;exitX=0.25;exitY=1;exitDx=0;exitDy=0;fontSize=12;startSize=8;endSize=8;" parent="WIyWlLk6GJQsqaUBKTNV-1" source="H1qVcyVTpbuyozmzhnAa-19" edge="1">
          <mxGeometry relative="1" as="geometry">
            <mxPoint x="897" y="2140" as="targetPoint" />
            <Array as="points">
              <mxPoint x="1017" y="1720" />
              <mxPoint x="1017" y="2140" />
            </Array>
          </mxGeometry>
        </mxCell>
        <mxCell id="H1qVcyVTpbuyozmzhnAa-19" value="Нет" style="text;strokeColor=none;fillColor=none;html=1;align=center;verticalAlign=middle;whiteSpace=wrap;rounded=0;fontSize=16;fontFamily=Times New Roman;" parent="WIyWlLk6GJQsqaUBKTNV-1" vertex="1">
          <mxGeometry x="941.5" y="1690" width="60" height="30" as="geometry" />
        </mxCell>
        <mxCell id="H1qVcyVTpbuyozmzhnAa-42" style="edgeStyle=none;curved=1;rounded=0;orthogonalLoop=1;jettySize=auto;html=1;entryX=0.5;entryY=0;entryDx=0;entryDy=0;fontSize=12;startSize=8;endSize=8;" parent="WIyWlLk6GJQsqaUBKTNV-1" source="H1qVcyVTpbuyozmzhnAa-20" target="H1qVcyVTpbuyozmzhnAa-22" edge="1">
          <mxGeometry relative="1" as="geometry" />
        </mxCell>
        <mxCell id="H1qVcyVTpbuyozmzhnAa-20" value="resetEveryMultipleOfN(&lt;br&gt;massives[i], 2);" style="shape=process;whiteSpace=wrap;html=1;backgroundOutline=1;fontFamily=Times New Roman;rounded=0;fontSize=9;size=0.058333333333333334;" parent="WIyWlLk6GJQsqaUBKTNV-1" vertex="1">
          <mxGeometry x="835" y="1800" width="120" height="80" as="geometry" />
        </mxCell>
        <mxCell id="H1qVcyVTpbuyozmzhnAa-43" style="edgeStyle=none;curved=1;rounded=0;orthogonalLoop=1;jettySize=auto;html=1;entryX=0.5;entryY=0;entryDx=0;entryDy=0;fontSize=12;startSize=8;endSize=8;" parent="WIyWlLk6GJQsqaUBKTNV-1" source="H1qVcyVTpbuyozmzhnAa-22" target="H1qVcyVTpbuyozmzhnAa-25" edge="1">
          <mxGeometry relative="1" as="geometry" />
        </mxCell>
        <mxCell id="H1qVcyVTpbuyozmzhnAa-22" value="Вывод&lt;div&gt;&lt;br&gt;&lt;/div&gt;" style="shape=parallelogram;perimeter=parallelogramPerimeter;whiteSpace=wrap;html=1;fixedSize=1;fontFamily=Times New Roman;" parent="WIyWlLk6GJQsqaUBKTNV-1" vertex="1">
          <mxGeometry x="835" y="1919.5" width="120" height="80" as="geometry" />
        </mxCell>
        <mxCell id="H1qVcyVTpbuyozmzhnAa-23" value="&lt;span style=&quot;color: rgba(0, 0, 0, 0); font-size: 0px;&quot;&gt;в&lt;/span&gt;" style="strokeWidth=2;html=1;shape=mxgraph.flowchart.annotation_2;align=left;labelPosition=right;pointerEvents=1;fontFamily=Times New Roman;rotation=-180;" parent="WIyWlLk6GJQsqaUBKTNV-1" vertex="1">
          <mxGeometry x="767" y="1940" width="80" height="30" as="geometry" />
        </mxCell>
        <mxCell id="H1qVcyVTpbuyozmzhnAa-24" value="&lt;div style=&quot;&quot;&gt;$&quot;Т.к. максимальный чётный ({max}), мы обнулили все чётные элементы:&quot;&lt;br&gt;&lt;/div&gt;" style="text;strokeColor=none;fillColor=none;html=1;align=left;verticalAlign=middle;whiteSpace=wrap;rounded=0;fontSize=12;movable=1;resizable=1;rotatable=1;deletable=1;editable=1;locked=0;connectable=1;fontFamily=Times New Roman;" parent="WIyWlLk6GJQsqaUBKTNV-1" vertex="1">
          <mxGeometry x="417" y="1915" width="520" height="80" as="geometry" />
        </mxCell>
        <mxCell id="H1qVcyVTpbuyozmzhnAa-44" style="edgeStyle=none;curved=1;rounded=0;orthogonalLoop=1;jettySize=auto;html=1;fontSize=12;startSize=8;endSize=8;" parent="WIyWlLk6GJQsqaUBKTNV-1" source="H1qVcyVTpbuyozmzhnAa-25" edge="1">
          <mxGeometry relative="1" as="geometry">
            <mxPoint x="895" y="2160" as="targetPoint" />
          </mxGeometry>
        </mxCell>
        <mxCell id="H1qVcyVTpbuyozmzhnAa-25" value="outputMassivesToConsole(&lt;br&gt;massives[i]);" style="shape=process;whiteSpace=wrap;html=1;backgroundOutline=1;fontFamily=Times New Roman;rounded=0;fontSize=9;size=0.058333333333333334;" parent="WIyWlLk6GJQsqaUBKTNV-1" vertex="1">
          <mxGeometry x="835" y="2040" width="120" height="80" as="geometry" />
        </mxCell>
        <mxCell id="H1qVcyVTpbuyozmzhnAa-26" value="1" style="ellipse;whiteSpace=wrap;html=1;" parent="WIyWlLk6GJQsqaUBKTNV-1" vertex="1">
          <mxGeometry x="180" y="2520" width="40" height="40" as="geometry" />
        </mxCell>
        <mxCell id="H1qVcyVTpbuyozmzhnAa-39" style="edgeStyle=none;curved=1;rounded=0;orthogonalLoop=1;jettySize=auto;html=1;entryX=0.5;entryY=0;entryDx=0;entryDy=0;fontSize=12;startSize=8;endSize=8;" parent="WIyWlLk6GJQsqaUBKTNV-1" source="H1qVcyVTpbuyozmzhnAa-27" target="H1qVcyVTpbuyozmzhnAa-15" edge="1">
          <mxGeometry relative="1" as="geometry" />
        </mxCell>
        <mxCell id="H1qVcyVTpbuyozmzhnAa-27" value="1" style="ellipse;whiteSpace=wrap;html=1;" parent="WIyWlLk6GJQsqaUBKTNV-1" vertex="1">
          <mxGeometry x="875" y="1480" width="40" height="40" as="geometry" />
        </mxCell>
        <mxCell id="H1qVcyVTpbuyozmzhnAa-31" style="edgeStyle=none;curved=1;rounded=0;orthogonalLoop=1;jettySize=auto;html=1;entryX=0.5;entryY=0;entryDx=0;entryDy=0;entryPerimeter=0;fontSize=12;startSize=8;endSize=8;" parent="WIyWlLk6GJQsqaUBKTNV-1" source="H1qVcyVTpbuyozmzhnAa-4" target="H1qVcyVTpbuyozmzhnAa-7" edge="1">
          <mxGeometry relative="1" as="geometry" />
        </mxCell>
        <mxCell id="H1qVcyVTpbuyozmzhnAa-38" style="edgeStyle=none;curved=1;rounded=0;orthogonalLoop=1;jettySize=auto;html=1;exitX=0;exitY=0.5;exitDx=0;exitDy=0;fontSize=12;startSize=8;endSize=8;" parent="WIyWlLk6GJQsqaUBKTNV-1" source="H1qVcyVTpbuyozmzhnAa-27" target="H1qVcyVTpbuyozmzhnAa-27" edge="1">
          <mxGeometry relative="1" as="geometry" />
        </mxCell>
        <mxCell id="H1qVcyVTpbuyozmzhnAa-46" style="edgeStyle=none;curved=1;rounded=0;orthogonalLoop=1;jettySize=auto;html=1;entryX=0.5;entryY=0;entryDx=0;entryDy=0;entryPerimeter=0;fontSize=12;startSize=8;endSize=8;" parent="WIyWlLk6GJQsqaUBKTNV-1" source="H1qVcyVTpbuyozmzhnAa-16" target="H1qVcyVTpbuyozmzhnAa-2" edge="1">
          <mxGeometry relative="1" as="geometry" />
        </mxCell>
        <mxCell id="H1qVcyVTpbuyozmzhnAa-48" style="edgeStyle=none;curved=1;rounded=0;orthogonalLoop=1;jettySize=auto;html=1;exitX=0.5;exitY=1;exitDx=0;exitDy=0;exitPerimeter=0;entryX=0.5;entryY=0;entryDx=0;entryDy=0;fontSize=12;startSize=8;endSize=8;fontFamily=Times New Roman;" parent="WIyWlLk6GJQsqaUBKTNV-1" source="H1qVcyVTpbuyozmzhnAa-49" target="H1qVcyVTpbuyozmzhnAa-53" edge="1">
          <mxGeometry relative="1" as="geometry" />
        </mxCell>
        <mxCell id="H1qVcyVTpbuyozmzhnAa-49" value="Начало" style="strokeWidth=2;html=1;shape=mxgraph.flowchart.terminator;whiteSpace=wrap;fontFamily=Times New Roman;" parent="WIyWlLk6GJQsqaUBKTNV-1" vertex="1">
          <mxGeometry x="1080" y="1480" width="120" height="40" as="geometry" />
        </mxCell>
        <mxCell id="H1qVcyVTpbuyozmzhnAa-50" value="Конец" style="strokeWidth=2;html=1;shape=mxgraph.flowchart.terminator;whiteSpace=wrap;fontFamily=Times New Roman;" parent="WIyWlLk6GJQsqaUBKTNV-1" vertex="1">
          <mxGeometry x="1080" y="1909.5" width="120" height="40" as="geometry" />
        </mxCell>
        <mxCell id="H1qVcyVTpbuyozmzhnAa-51" value="static void coloredWriteLine(string str, ConsoleColor color)" style="strokeWidth=2;html=1;shape=mxgraph.flowchart.annotation_2;align=left;labelPosition=right;pointerEvents=1;fontFamily=Times New Roman;" parent="WIyWlLk6GJQsqaUBKTNV-1" vertex="1">
          <mxGeometry x="1200" y="1485" width="33" height="30" as="geometry" />
        </mxCell>
        <mxCell id="H1qVcyVTpbuyozmzhnAa-52" style="edgeStyle=none;curved=1;rounded=0;orthogonalLoop=1;jettySize=auto;html=1;exitX=0.5;exitY=1;exitDx=0;exitDy=0;entryX=0.5;entryY=0;entryDx=0;entryDy=0;fontSize=12;startSize=8;endSize=8;fontFamily=Times New Roman;" parent="WIyWlLk6GJQsqaUBKTNV-1" source="H1qVcyVTpbuyozmzhnAa-53" edge="1">
          <mxGeometry relative="1" as="geometry">
            <mxPoint x="1140" y="1678" as="targetPoint" />
          </mxGeometry>
        </mxCell>
        <mxCell id="H1qVcyVTpbuyozmzhnAa-53" value="Console.&lt;br&gt;ForegroundColor = color;" style="rounded=0;whiteSpace=wrap;html=1;fontFamily=Times New Roman;" parent="WIyWlLk6GJQsqaUBKTNV-1" vertex="1">
          <mxGeometry x="1080" y="1558" width="120" height="80" as="geometry" />
        </mxCell>
        <mxCell id="H1qVcyVTpbuyozmzhnAa-56" style="edgeStyle=none;curved=1;rounded=0;orthogonalLoop=1;jettySize=auto;html=1;exitX=0.5;exitY=1;exitDx=0;exitDy=0;entryX=0.5;entryY=0;entryDx=0;entryDy=0;entryPerimeter=0;fontSize=12;startSize=8;endSize=8;fontFamily=Times New Roman;" parent="WIyWlLk6GJQsqaUBKTNV-1" target="H1qVcyVTpbuyozmzhnAa-50" edge="1">
          <mxGeometry relative="1" as="geometry">
            <mxPoint x="1140" y="1879.5" as="sourcePoint" />
          </mxGeometry>
        </mxCell>
        <mxCell id="H1qVcyVTpbuyozmzhnAa-57" value="Console.ResetColor();" style="rounded=0;whiteSpace=wrap;html=1;fontFamily=Times New Roman;" parent="WIyWlLk6GJQsqaUBKTNV-1" vertex="1">
          <mxGeometry x="1080" y="1800" width="120" height="80" as="geometry" />
        </mxCell>
        <mxCell id="H1qVcyVTpbuyozmzhnAa-59" style="edgeStyle=none;curved=1;rounded=0;orthogonalLoop=1;jettySize=auto;html=1;entryX=0.5;entryY=0;entryDx=0;entryDy=0;fontSize=12;startSize=8;endSize=8;" parent="WIyWlLk6GJQsqaUBKTNV-1" source="H1qVcyVTpbuyozmzhnAa-58" target="H1qVcyVTpbuyozmzhnAa-57" edge="1">
          <mxGeometry relative="1" as="geometry" />
        </mxCell>
        <mxCell id="H1qVcyVTpbuyozmzhnAa-58" value="Вывод&lt;div&gt;str&lt;/div&gt;" style="shape=parallelogram;perimeter=parallelogramPerimeter;whiteSpace=wrap;html=1;fixedSize=1;fontFamily=Times New Roman;" parent="WIyWlLk6GJQsqaUBKTNV-1" vertex="1">
          <mxGeometry x="1080" y="1680" width="120" height="80" as="geometry" />
        </mxCell>
        <mxCell id="H1qVcyVTpbuyozmzhnAa-60" style="edgeStyle=none;curved=1;rounded=0;orthogonalLoop=1;jettySize=auto;html=1;exitX=0.5;exitY=1;exitDx=0;exitDy=0;exitPerimeter=0;entryX=0.5;entryY=0;entryDx=0;entryDy=0;fontSize=12;startSize=8;endSize=8;fontFamily=Times New Roman;" parent="WIyWlLk6GJQsqaUBKTNV-1" source="H1qVcyVTpbuyozmzhnAa-61" target="H1qVcyVTpbuyozmzhnAa-65" edge="1">
          <mxGeometry relative="1" as="geometry" />
        </mxCell>
        <mxCell id="H1qVcyVTpbuyozmzhnAa-61" value="Начало" style="strokeWidth=2;html=1;shape=mxgraph.flowchart.terminator;whiteSpace=wrap;fontFamily=Times New Roman;" parent="WIyWlLk6GJQsqaUBKTNV-1" vertex="1">
          <mxGeometry x="1560" y="1480" width="120" height="40" as="geometry" />
        </mxCell>
        <mxCell id="H1qVcyVTpbuyozmzhnAa-62" value="Конец" style="strokeWidth=2;html=1;shape=mxgraph.flowchart.terminator;whiteSpace=wrap;fontFamily=Times New Roman;" parent="WIyWlLk6GJQsqaUBKTNV-1" vertex="1">
          <mxGeometry x="1560" y="3360" width="120" height="40" as="geometry" />
        </mxCell>
        <mxCell id="H1qVcyVTpbuyozmzhnAa-63" value="static void inputMassivesFromConsole(ref int[] mas)" style="strokeWidth=2;html=1;shape=mxgraph.flowchart.annotation_2;align=left;labelPosition=right;pointerEvents=1;fontFamily=Times New Roman;" parent="WIyWlLk6GJQsqaUBKTNV-1" vertex="1">
          <mxGeometry x="1680" y="1485" width="33" height="30" as="geometry" />
        </mxCell>
        <mxCell id="H1qVcyVTpbuyozmzhnAa-64" style="edgeStyle=none;curved=1;rounded=0;orthogonalLoop=1;jettySize=auto;html=1;exitX=0.5;exitY=1;exitDx=0;exitDy=0;entryX=0.5;entryY=0;entryDx=0;entryDy=0;fontSize=12;startSize=8;endSize=8;fontFamily=Times New Roman;" parent="WIyWlLk6GJQsqaUBKTNV-1" source="H1qVcyVTpbuyozmzhnAa-65" edge="1">
          <mxGeometry relative="1" as="geometry">
            <mxPoint x="1620" y="1678" as="targetPoint" />
          </mxGeometry>
        </mxCell>
        <mxCell id="H1qVcyVTpbuyozmzhnAa-65" value="int len = -1;" style="rounded=0;whiteSpace=wrap;html=1;fontFamily=Times New Roman;" parent="WIyWlLk6GJQsqaUBKTNV-1" vertex="1">
          <mxGeometry x="1560" y="1558" width="120" height="80" as="geometry" />
        </mxCell>
        <mxCell id="H1qVcyVTpbuyozmzhnAa-68" style="edgeStyle=none;curved=1;rounded=0;orthogonalLoop=1;jettySize=auto;html=1;entryX=0.5;entryY=0;entryDx=0;entryDy=0;fontSize=12;startSize=8;endSize=8;" parent="WIyWlLk6GJQsqaUBKTNV-1" source="H1qVcyVTpbuyozmzhnAa-69" edge="1">
          <mxGeometry relative="1" as="geometry">
            <mxPoint x="1620" y="1800" as="targetPoint" />
          </mxGeometry>
        </mxCell>
        <mxCell id="H1qVcyVTpbuyozmzhnAa-69" value="Вывод&lt;div&gt;&quot;Введите длину массива&lt;br&gt;(от 1 до 1000): &quot;&lt;br&gt;&lt;/div&gt;" style="shape=parallelogram;perimeter=parallelogramPerimeter;whiteSpace=wrap;html=1;fixedSize=1;fontFamily=Times New Roman;" parent="WIyWlLk6GJQsqaUBKTNV-1" vertex="1">
          <mxGeometry x="1560" y="1680" width="120" height="80" as="geometry" />
        </mxCell>
        <mxCell id="H1qVcyVTpbuyozmzhnAa-72" value="" style="rhombus;whiteSpace=wrap;html=1;fontFamily=Times New Roman;" parent="WIyWlLk6GJQsqaUBKTNV-1" vertex="1">
          <mxGeometry x="1560" y="1800" width="120" height="80" as="geometry" />
        </mxCell>
        <mxCell id="H1qVcyVTpbuyozmzhnAa-79" style="edgeStyle=none;curved=0;rounded=0;orthogonalLoop=1;jettySize=auto;html=1;exitX=0;exitY=1;exitDx=0;exitDy=0;fontSize=12;startSize=8;endSize=8;" parent="WIyWlLk6GJQsqaUBKTNV-1" source="H1qVcyVTpbuyozmzhnAa-73" edge="1">
          <mxGeometry relative="1" as="geometry">
            <mxPoint x="1620" y="1660" as="targetPoint" />
            <Array as="points">
              <mxPoint x="1760" y="1840" />
              <mxPoint x="1760" y="1660" />
            </Array>
          </mxGeometry>
        </mxCell>
        <mxCell id="H1qVcyVTpbuyozmzhnAa-73" value="Да" style="text;strokeColor=none;fillColor=none;html=1;align=center;verticalAlign=middle;whiteSpace=wrap;rounded=0;fontSize=16;fontFamily=Times New Roman;" parent="WIyWlLk6GJQsqaUBKTNV-1" vertex="1">
          <mxGeometry x="1680" y="1810" width="60" height="30" as="geometry" />
        </mxCell>
        <mxCell id="H1qVcyVTpbuyozmzhnAa-74" value="Нет" style="text;strokeColor=none;fillColor=none;html=1;align=center;verticalAlign=middle;whiteSpace=wrap;rounded=0;fontSize=16;fontFamily=Times New Roman;" parent="WIyWlLk6GJQsqaUBKTNV-1" vertex="1">
          <mxGeometry x="1620" y="1870" width="60" height="30" as="geometry" />
        </mxCell>
        <mxCell id="H1qVcyVTpbuyozmzhnAa-75" value="" style="strokeWidth=2;html=1;shape=mxgraph.flowchart.annotation_2;align=left;labelPosition=right;pointerEvents=1;fontFamily=Times New Roman;flipV=1;flipH=1;" parent="WIyWlLk6GJQsqaUBKTNV-1" vertex="1">
          <mxGeometry x="1527" y="1810" width="33" height="60" as="geometry" />
        </mxCell>
        <mxCell id="H1qVcyVTpbuyozmzhnAa-78" value="&lt;div&gt;!int.TryParse(Console.ReadLine(), &lt;br&gt;out len) ||&amp;nbsp;&lt;span style=&quot;background-color: initial;&quot;&gt;(len &amp;lt;= 0) || (len &amp;gt; 000)&lt;/span&gt;&lt;/div&gt;" style="text;strokeColor=none;fillColor=none;html=1;align=center;verticalAlign=middle;whiteSpace=wrap;rounded=0;fontSize=16;" parent="WIyWlLk6GJQsqaUBKTNV-1" vertex="1">
          <mxGeometry x="1288" y="1795" width="250" height="90" as="geometry" />
        </mxCell>
        <mxCell id="H1qVcyVTpbuyozmzhnAa-83" style="edgeStyle=none;curved=1;rounded=0;orthogonalLoop=1;jettySize=auto;html=1;fontSize=12;startSize=8;endSize=8;" parent="WIyWlLk6GJQsqaUBKTNV-1" source="TSFyWmvM7NFGQRtw7dhG-3" target="H1qVcyVTpbuyozmzhnAa-84" edge="1">
          <mxGeometry relative="1" as="geometry">
            <mxPoint x="1620" y="1880" as="sourcePoint" />
          </mxGeometry>
        </mxCell>
        <mxCell id="H1qVcyVTpbuyozmzhnAa-84" value="Вывод&lt;div&gt;&lt;br&gt;&lt;/div&gt;" style="shape=parallelogram;perimeter=parallelogramPerimeter;whiteSpace=wrap;html=1;fixedSize=1;fontFamily=Times New Roman;" parent="WIyWlLk6GJQsqaUBKTNV-1" vertex="1">
          <mxGeometry x="1560" y="2060" width="120" height="80" as="geometry" />
        </mxCell>
        <mxCell id="H1qVcyVTpbuyozmzhnAa-85" value="&lt;span style=&quot;color: rgba(0, 0, 0, 0); font-size: 0px;&quot;&gt;в&lt;/span&gt;" style="strokeWidth=2;html=1;shape=mxgraph.flowchart.annotation_2;align=left;labelPosition=right;pointerEvents=1;fontFamily=Times New Roman;" parent="WIyWlLk6GJQsqaUBKTNV-1" vertex="1">
          <mxGeometry x="1670" y="2050" width="80" height="100" as="geometry" />
        </mxCell>
        <mxCell id="H1qVcyVTpbuyozmzhnAa-86" value="&lt;div style=&quot;&quot;&gt;Как вы хотите ввести ввести массив?&lt;br&gt;1)Вручную каждое значение&lt;br&gt;2)Случайным образом заполнить&lt;br&gt;Ваш выбор:&amp;nbsp;&lt;br&gt;&lt;/div&gt;" style="text;strokeColor=none;fillColor=none;html=1;align=left;verticalAlign=middle;whiteSpace=wrap;rounded=0;fontSize=12;movable=1;resizable=1;rotatable=1;deletable=1;editable=1;locked=0;connectable=1;fontFamily=Times New Roman;" parent="WIyWlLk6GJQsqaUBKTNV-1" vertex="1">
          <mxGeometry x="1720" y="2060" width="520" height="80" as="geometry" />
        </mxCell>
        <mxCell id="H1qVcyVTpbuyozmzhnAa-87" style="edgeStyle=none;curved=1;rounded=0;orthogonalLoop=1;jettySize=auto;html=1;entryX=0.5;entryY=0;entryDx=0;entryDy=0;entryPerimeter=0;fontSize=12;startSize=8;endSize=8;" parent="WIyWlLk6GJQsqaUBKTNV-1" source="H1qVcyVTpbuyozmzhnAa-84" edge="1">
          <mxGeometry relative="1" as="geometry">
            <mxPoint x="1620" y="2180" as="targetPoint" />
          </mxGeometry>
        </mxCell>
        <mxCell id="k3ktSkJtKuqgEnv20yum-35" style="edgeStyle=none;curved=1;rounded=0;orthogonalLoop=1;jettySize=auto;html=1;exitX=0.5;exitY=1;exitDx=0;exitDy=0;entryX=0.5;entryY=0;entryDx=0;entryDy=0;fontSize=12;startSize=8;endSize=8;" parent="WIyWlLk6GJQsqaUBKTNV-1" source="k3ktSkJtKuqgEnv20yum-1" target="k3ktSkJtKuqgEnv20yum-28" edge="1">
          <mxGeometry relative="1" as="geometry" />
        </mxCell>
        <mxCell id="k3ktSkJtKuqgEnv20yum-1" value="choice" style="rhombus;whiteSpace=wrap;html=1;fontFamily=Times New Roman;" parent="WIyWlLk6GJQsqaUBKTNV-1" vertex="1">
          <mxGeometry x="1561" y="2421" width="120" height="80" as="geometry" />
        </mxCell>
        <mxCell id="k3ktSkJtKuqgEnv20yum-3" value="" style="endArrow=none;html=1;rounded=0;fontSize=12;startSize=8;endSize=8;curved=0;entryX=1;entryY=0.5;entryDx=0;entryDy=0;exitX=0.5;exitY=0;exitDx=0;exitDy=0;" parent="WIyWlLk6GJQsqaUBKTNV-1" source="k3ktSkJtKuqgEnv20yum-38" target="k3ktSkJtKuqgEnv20yum-1" edge="1">
          <mxGeometry width="50" height="50" relative="1" as="geometry">
            <mxPoint x="2180" y="2460" as="sourcePoint" />
            <mxPoint x="1641" y="2521" as="targetPoint" />
            <Array as="points">
              <mxPoint x="2180" y="2460" />
            </Array>
          </mxGeometry>
        </mxCell>
        <mxCell id="k3ktSkJtKuqgEnv20yum-5" value="1" style="text;strokeColor=none;fillColor=none;html=1;align=center;verticalAlign=middle;whiteSpace=wrap;rounded=0;fontSize=16;fontFamily=Times New Roman;" parent="WIyWlLk6GJQsqaUBKTNV-1" vertex="1">
          <mxGeometry x="1781" y="2461" width="60" height="30" as="geometry" />
        </mxCell>
        <mxCell id="k3ktSkJtKuqgEnv20yum-6" value="Вывод&lt;div&gt;&lt;br&gt;&lt;/div&gt;" style="shape=parallelogram;perimeter=parallelogramPerimeter;whiteSpace=wrap;html=1;fixedSize=1;fontFamily=Times New Roman;" parent="WIyWlLk6GJQsqaUBKTNV-1" vertex="1">
          <mxGeometry x="1761" y="2501" width="120" height="80" as="geometry" />
        </mxCell>
        <mxCell id="k3ktSkJtKuqgEnv20yum-7" value="&lt;span style=&quot;color: rgba(0, 0, 0, 0); font-size: 0px;&quot;&gt;в&lt;/span&gt;" style="strokeWidth=2;html=1;shape=mxgraph.flowchart.annotation_2;align=left;labelPosition=right;pointerEvents=1;fontFamily=Times New Roman;" parent="WIyWlLk6GJQsqaUBKTNV-1" vertex="1">
          <mxGeometry x="1871" y="2518.5" width="37" height="45" as="geometry" />
        </mxCell>
        <mxCell id="k3ktSkJtKuqgEnv20yum-9" value="" style="endArrow=none;html=1;rounded=0;fontSize=12;startSize=8;endSize=8;curved=1;" parent="WIyWlLk6GJQsqaUBKTNV-1" edge="1">
          <mxGeometry width="50" height="50" relative="1" as="geometry">
            <mxPoint x="1821" y="2501" as="sourcePoint" />
            <mxPoint x="1821" y="2461" as="targetPoint" />
          </mxGeometry>
        </mxCell>
        <mxCell id="k3ktSkJtKuqgEnv20yum-10" value="&quot;Вручную:&lt;br&gt;Вводите целые числа:&quot;" style="text;strokeColor=none;fillColor=none;html=1;align=left;verticalAlign=middle;whiteSpace=wrap;rounded=0;fontSize=16;movable=1;resizable=1;rotatable=1;deletable=1;editable=1;locked=0;connectable=1;" parent="WIyWlLk6GJQsqaUBKTNV-1" vertex="1">
          <mxGeometry x="1898" y="2516" width="193" height="50" as="geometry" />
        </mxCell>
        <mxCell id="k3ktSkJtKuqgEnv20yum-25" style="edgeStyle=none;curved=1;rounded=0;orthogonalLoop=1;jettySize=auto;html=1;fontSize=12;startSize=8;endSize=8;entryX=0.5;entryY=0;entryDx=0;entryDy=0;" parent="WIyWlLk6GJQsqaUBKTNV-1" source="k3ktSkJtKuqgEnv20yum-12" target="k3ktSkJtKuqgEnv20yum-17" edge="1">
          <mxGeometry relative="1" as="geometry">
            <mxPoint x="1821" y="2741" as="targetPoint" />
          </mxGeometry>
        </mxCell>
        <mxCell id="k3ktSkJtKuqgEnv20yum-12" value="Цикл2&lt;div&gt;int i = 0;&amp;nbsp;&lt;/div&gt;&lt;div&gt;i &amp;lt; mas.Length;&lt;br&gt;&lt;/div&gt;" style="strokeWidth=2;html=1;shape=mxgraph.flowchart.loop_limit;whiteSpace=wrap;fontFamily=Times New Roman;" parent="WIyWlLk6GJQsqaUBKTNV-1" vertex="1">
          <mxGeometry x="1761" y="2622" width="120" height="80" as="geometry" />
        </mxCell>
        <mxCell id="k3ktSkJtKuqgEnv20yum-13" value="Цикл2&lt;br&gt;&amp;nbsp;i++;" style="strokeWidth=2;html=1;shape=mxgraph.flowchart.loop_limit;whiteSpace=wrap;flipH=1;flipV=1;fontFamily=Times New Roman;" parent="WIyWlLk6GJQsqaUBKTNV-1" vertex="1">
          <mxGeometry x="1763" y="2976" width="120" height="80" as="geometry" />
        </mxCell>
        <mxCell id="k3ktSkJtKuqgEnv20yum-16" style="edgeStyle=none;curved=1;rounded=0;orthogonalLoop=1;jettySize=auto;html=1;entryX=0.5;entryY=0;entryDx=0;entryDy=0;fontSize=12;startSize=8;endSize=8;" parent="WIyWlLk6GJQsqaUBKTNV-1" source="k3ktSkJtKuqgEnv20yum-17" edge="1">
          <mxGeometry relative="1" as="geometry">
            <mxPoint x="1823" y="2859" as="targetPoint" />
          </mxGeometry>
        </mxCell>
        <mxCell id="k3ktSkJtKuqgEnv20yum-17" value="Вывод&lt;div&gt;$&quot;[{i}]: &quot;&lt;br&gt;&lt;/div&gt;" style="shape=parallelogram;perimeter=parallelogramPerimeter;whiteSpace=wrap;html=1;fixedSize=1;fontFamily=Times New Roman;" parent="WIyWlLk6GJQsqaUBKTNV-1" vertex="1">
          <mxGeometry x="1763" y="2739" width="120" height="80" as="geometry" />
        </mxCell>
        <mxCell id="k3ktSkJtKuqgEnv20yum-18" value="" style="rhombus;whiteSpace=wrap;html=1;fontFamily=Times New Roman;" parent="WIyWlLk6GJQsqaUBKTNV-1" vertex="1">
          <mxGeometry x="1763" y="2859" width="120" height="80" as="geometry" />
        </mxCell>
        <mxCell id="k3ktSkJtKuqgEnv20yum-19" style="edgeStyle=none;curved=0;rounded=0;orthogonalLoop=1;jettySize=auto;html=1;exitX=0;exitY=1;exitDx=0;exitDy=0;fontSize=12;startSize=8;endSize=8;" parent="WIyWlLk6GJQsqaUBKTNV-1" source="k3ktSkJtKuqgEnv20yum-20" edge="1">
          <mxGeometry relative="1" as="geometry">
            <mxPoint x="1823" y="2719" as="targetPoint" />
            <Array as="points">
              <mxPoint x="1963" y="2899" />
              <mxPoint x="1963" y="2719" />
            </Array>
          </mxGeometry>
        </mxCell>
        <mxCell id="k3ktSkJtKuqgEnv20yum-20" value="Да" style="text;strokeColor=none;fillColor=none;html=1;align=center;verticalAlign=middle;whiteSpace=wrap;rounded=0;fontSize=16;fontFamily=Times New Roman;" parent="WIyWlLk6GJQsqaUBKTNV-1" vertex="1">
          <mxGeometry x="1883" y="2869" width="60" height="30" as="geometry" />
        </mxCell>
        <mxCell id="k3ktSkJtKuqgEnv20yum-21" value="Нет" style="text;strokeColor=none;fillColor=none;html=1;align=center;verticalAlign=middle;whiteSpace=wrap;rounded=0;fontSize=16;fontFamily=Times New Roman;" parent="WIyWlLk6GJQsqaUBKTNV-1" vertex="1">
          <mxGeometry x="1823" y="2929" width="60" height="30" as="geometry" />
        </mxCell>
        <mxCell id="k3ktSkJtKuqgEnv20yum-22" value="" style="strokeWidth=2;html=1;shape=mxgraph.flowchart.annotation_2;align=left;labelPosition=right;pointerEvents=1;fontFamily=Times New Roman;flipV=1;flipH=1;" parent="WIyWlLk6GJQsqaUBKTNV-1" vertex="1">
          <mxGeometry x="1730" y="2869" width="33" height="60" as="geometry" />
        </mxCell>
        <mxCell id="k3ktSkJtKuqgEnv20yum-23" value="!int.TryParse(Console.ReadLine(), out mas[i])" style="text;strokeColor=none;fillColor=none;html=1;align=center;verticalAlign=middle;whiteSpace=wrap;rounded=0;fontSize=16;" parent="WIyWlLk6GJQsqaUBKTNV-1" vertex="1">
          <mxGeometry x="1491" y="2854" width="250" height="90" as="geometry" />
        </mxCell>
        <mxCell id="k3ktSkJtKuqgEnv20yum-24" style="edgeStyle=none;curved=1;rounded=0;orthogonalLoop=1;jettySize=auto;html=1;fontSize=12;startSize=8;endSize=8;" parent="WIyWlLk6GJQsqaUBKTNV-1" edge="1">
          <mxGeometry relative="1" as="geometry">
            <mxPoint x="1823" y="2939" as="sourcePoint" />
            <mxPoint x="1823" y="2976" as="targetPoint" />
          </mxGeometry>
        </mxCell>
        <mxCell id="k3ktSkJtKuqgEnv20yum-26" style="edgeStyle=none;curved=1;rounded=0;orthogonalLoop=1;jettySize=auto;html=1;entryX=0.5;entryY=0;entryDx=0;entryDy=0;entryPerimeter=0;fontSize=12;startSize=8;endSize=8;" parent="WIyWlLk6GJQsqaUBKTNV-1" source="k3ktSkJtKuqgEnv20yum-6" target="k3ktSkJtKuqgEnv20yum-12" edge="1">
          <mxGeometry relative="1" as="geometry" />
        </mxCell>
        <mxCell id="k3ktSkJtKuqgEnv20yum-32" style="edgeStyle=none;curved=0;rounded=0;orthogonalLoop=1;jettySize=auto;html=1;exitX=0.5;exitY=1;exitDx=0;exitDy=0;fontSize=12;startSize=8;endSize=8;" parent="WIyWlLk6GJQsqaUBKTNV-1" source="TSFyWmvM7NFGQRtw7dhG-5" edge="1">
          <mxGeometry relative="1" as="geometry">
            <mxPoint x="1620" y="1900" as="targetPoint" />
            <Array as="points">
              <mxPoint x="1620" y="2800" />
              <mxPoint x="1440" y="2800" />
              <mxPoint x="1440" y="1900" />
            </Array>
          </mxGeometry>
        </mxCell>
        <mxCell id="TSFyWmvM7NFGQRtw7dhG-7" style="edgeStyle=orthogonalEdgeStyle;rounded=0;orthogonalLoop=1;jettySize=auto;html=1;entryX=0.5;entryY=0;entryDx=0;entryDy=0;" parent="WIyWlLk6GJQsqaUBKTNV-1" source="k3ktSkJtKuqgEnv20yum-28" target="TSFyWmvM7NFGQRtw7dhG-5" edge="1">
          <mxGeometry relative="1" as="geometry" />
        </mxCell>
        <mxCell id="k3ktSkJtKuqgEnv20yum-28" value="coloredWriteLine(&quot;\nВы ввели неожиданное значение.Введите одно из предложенных.&quot;, ConsoleColor.Red);" style="shape=process;whiteSpace=wrap;html=1;backgroundOutline=1;fontFamily=Times New Roman;rounded=0;fontSize=9;size=0.058333333333333334;" parent="WIyWlLk6GJQsqaUBKTNV-1" vertex="1">
          <mxGeometry x="1561" y="2542" width="120" height="80" as="geometry" />
        </mxCell>
        <mxCell id="k3ktSkJtKuqgEnv20yum-29" value="Console.ResetColor();" style="rounded=0;whiteSpace=wrap;html=1;fontFamily=Times New Roman;" parent="WIyWlLk6GJQsqaUBKTNV-1" vertex="1">
          <mxGeometry x="1080" y="1800" width="120" height="80" as="geometry" />
        </mxCell>
        <mxCell id="k3ktSkJtKuqgEnv20yum-33" style="edgeStyle=none;curved=1;rounded=0;orthogonalLoop=1;jettySize=auto;html=1;fontSize=12;startSize=8;endSize=8;" parent="WIyWlLk6GJQsqaUBKTNV-1" source="k3ktSkJtKuqgEnv20yum-30" edge="1">
          <mxGeometry relative="1" as="geometry">
            <mxPoint x="1620" y="2300" as="targetPoint" />
          </mxGeometry>
        </mxCell>
        <mxCell id="k3ktSkJtKuqgEnv20yum-30" value="byte choice = 0;" style="rounded=0;whiteSpace=wrap;html=1;fontFamily=Times New Roman;" parent="WIyWlLk6GJQsqaUBKTNV-1" vertex="1">
          <mxGeometry x="1560" y="2180" width="120" height="80" as="geometry" />
        </mxCell>
        <mxCell id="k3ktSkJtKuqgEnv20yum-34" style="edgeStyle=none;curved=1;rounded=0;orthogonalLoop=1;jettySize=auto;html=1;entryX=0.5;entryY=0;entryDx=0;entryDy=0;fontSize=12;startSize=8;endSize=8;" parent="WIyWlLk6GJQsqaUBKTNV-1" source="k3ktSkJtKuqgEnv20yum-31" target="k3ktSkJtKuqgEnv20yum-1" edge="1">
          <mxGeometry relative="1" as="geometry" />
        </mxCell>
        <mxCell id="k3ktSkJtKuqgEnv20yum-31" value="Ввод&lt;div&gt;byte.TryParse(&lt;br&gt;Console.ReadLine(), out choice);&lt;br&gt;&lt;/div&gt;" style="shape=parallelogram;perimeter=parallelogramPerimeter;whiteSpace=wrap;html=1;fixedSize=1;fontFamily=Times New Roman;" parent="WIyWlLk6GJQsqaUBKTNV-1" vertex="1">
          <mxGeometry x="1560" y="2301" width="120" height="80" as="geometry" />
        </mxCell>
        <mxCell id="k3ktSkJtKuqgEnv20yum-37" value="2" style="text;strokeColor=none;fillColor=none;html=1;align=center;verticalAlign=middle;whiteSpace=wrap;rounded=0;fontSize=16;fontFamily=Times New Roman;" parent="WIyWlLk6GJQsqaUBKTNV-1" vertex="1">
          <mxGeometry x="2141" y="2461" width="60" height="30" as="geometry" />
        </mxCell>
        <mxCell id="k3ktSkJtKuqgEnv20yum-38" value="Вывод&lt;div&gt;&lt;br&gt;&lt;/div&gt;" style="shape=parallelogram;perimeter=parallelogramPerimeter;whiteSpace=wrap;html=1;fixedSize=1;fontFamily=Times New Roman;" parent="WIyWlLk6GJQsqaUBKTNV-1" vertex="1">
          <mxGeometry x="2121" y="2501" width="120" height="80" as="geometry" />
        </mxCell>
        <mxCell id="k3ktSkJtKuqgEnv20yum-39" value="&lt;span style=&quot;color: rgba(0, 0, 0, 0); font-size: 0px;&quot;&gt;в&lt;/span&gt;" style="strokeWidth=2;html=1;shape=mxgraph.flowchart.annotation_2;align=left;labelPosition=right;pointerEvents=1;fontFamily=Times New Roman;" parent="WIyWlLk6GJQsqaUBKTNV-1" vertex="1">
          <mxGeometry x="2231" y="2518.5" width="37" height="45" as="geometry" />
        </mxCell>
        <mxCell id="k3ktSkJtKuqgEnv20yum-41" value="&quot;Вручную:\n&lt;br&gt;Вводите целые числа:&quot;" style="text;strokeColor=none;fillColor=none;html=1;align=left;verticalAlign=middle;whiteSpace=wrap;rounded=0;fontSize=16;movable=1;resizable=1;rotatable=1;deletable=1;editable=1;locked=0;connectable=1;" parent="WIyWlLk6GJQsqaUBKTNV-1" vertex="1">
          <mxGeometry x="2260" y="2516" width="193" height="50" as="geometry" />
        </mxCell>
        <mxCell id="TSFyWmvM7NFGQRtw7dhG-11" style="edgeStyle=orthogonalEdgeStyle;rounded=0;orthogonalLoop=1;jettySize=auto;html=1;entryX=0.5;entryY=0;entryDx=0;entryDy=0;" parent="WIyWlLk6GJQsqaUBKTNV-1" source="k3ktSkJtKuqgEnv20yum-44" target="TSFyWmvM7NFGQRtw7dhG-10" edge="1">
          <mxGeometry relative="1" as="geometry" />
        </mxCell>
        <mxCell id="k3ktSkJtKuqgEnv20yum-44" value="Цикл3&lt;br&gt;&amp;nbsp;i++;" style="strokeWidth=2;html=1;shape=mxgraph.flowchart.loop_limit;whiteSpace=wrap;flipH=1;flipV=1;fontFamily=Times New Roman;" parent="WIyWlLk6GJQsqaUBKTNV-1" vertex="1">
          <mxGeometry x="2118" y="3102" width="120" height="80" as="geometry" />
        </mxCell>
        <mxCell id="k3ktSkJtKuqgEnv20yum-45" style="edgeStyle=none;curved=1;rounded=0;orthogonalLoop=1;jettySize=auto;html=1;entryX=0.5;entryY=0;entryDx=0;entryDy=0;fontSize=12;startSize=8;endSize=8;" parent="WIyWlLk6GJQsqaUBKTNV-1" source="k3ktSkJtKuqgEnv20yum-46" edge="1">
          <mxGeometry relative="1" as="geometry">
            <mxPoint x="2181" y="2742" as="targetPoint" />
          </mxGeometry>
        </mxCell>
        <mxCell id="k3ktSkJtKuqgEnv20yum-46" value="Вывод&lt;div&gt;&quot;Случайным образом:\n&quot;&lt;br&gt;&lt;/div&gt;" style="shape=parallelogram;perimeter=parallelogramPerimeter;whiteSpace=wrap;html=1;fixedSize=1;fontFamily=Times New Roman;" parent="WIyWlLk6GJQsqaUBKTNV-1" vertex="1">
          <mxGeometry x="2121" y="2622" width="120" height="80" as="geometry" />
        </mxCell>
        <mxCell id="k3ktSkJtKuqgEnv20yum-53" style="edgeStyle=none;curved=1;rounded=0;orthogonalLoop=1;jettySize=auto;html=1;fontSize=12;startSize=8;endSize=8;" parent="WIyWlLk6GJQsqaUBKTNV-1" edge="1">
          <mxGeometry relative="1" as="geometry">
            <mxPoint x="2178" y="3065" as="sourcePoint" />
            <mxPoint x="2178" y="3102" as="targetPoint" />
          </mxGeometry>
        </mxCell>
        <mxCell id="k3ktSkJtKuqgEnv20yum-54" style="edgeStyle=none;curved=1;rounded=0;orthogonalLoop=1;jettySize=auto;html=1;entryX=0.5;entryY=0;entryDx=0;entryDy=0;entryPerimeter=0;fontSize=12;startSize=8;endSize=8;" parent="WIyWlLk6GJQsqaUBKTNV-1" source="k3ktSkJtKuqgEnv20yum-38" edge="1">
          <mxGeometry relative="1" as="geometry">
            <mxPoint x="2181" y="2622" as="targetPoint" />
          </mxGeometry>
        </mxCell>
        <mxCell id="k3ktSkJtKuqgEnv20yum-58" style="edgeStyle=none;curved=1;rounded=0;orthogonalLoop=1;jettySize=auto;html=1;entryX=0.5;entryY=0;entryDx=0;entryDy=0;fontSize=12;startSize=8;endSize=8;" parent="WIyWlLk6GJQsqaUBKTNV-1" source="k3ktSkJtKuqgEnv20yum-55" target="k3ktSkJtKuqgEnv20yum-57" edge="1">
          <mxGeometry relative="1" as="geometry" />
        </mxCell>
        <mxCell id="k3ktSkJtKuqgEnv20yum-55" value="Цикл3&lt;div&gt;int i = 0;&amp;nbsp;&lt;/div&gt;&lt;div&gt;i &amp;lt; mas.Length;&lt;br&gt;&lt;/div&gt;" style="strokeWidth=2;html=1;shape=mxgraph.flowchart.loop_limit;whiteSpace=wrap;fontFamily=Times New Roman;" parent="WIyWlLk6GJQsqaUBKTNV-1" vertex="1">
          <mxGeometry x="2117.5" y="2863" width="120" height="80" as="geometry" />
        </mxCell>
        <mxCell id="k3ktSkJtKuqgEnv20yum-57" value="mas[i] = random.Next(-50000, 50000);" style="rounded=0;whiteSpace=wrap;html=1;fontFamily=Times New Roman;" parent="WIyWlLk6GJQsqaUBKTNV-1" vertex="1">
          <mxGeometry x="2117" y="2984.5" width="120" height="80" as="geometry" />
        </mxCell>
        <mxCell id="k3ktSkJtKuqgEnv20yum-59" value="Random random = new Random();" style="rounded=0;whiteSpace=wrap;html=1;fontFamily=Times New Roman;" parent="WIyWlLk6GJQsqaUBKTNV-1" vertex="1">
          <mxGeometry x="2118" y="2742" width="120" height="80" as="geometry" />
        </mxCell>
        <mxCell id="k3ktSkJtKuqgEnv20yum-60" style="edgeStyle=none;curved=1;rounded=0;orthogonalLoop=1;jettySize=auto;html=1;entryX=0.5;entryY=0;entryDx=0;entryDy=0;entryPerimeter=0;fontSize=12;startSize=8;endSize=8;" parent="WIyWlLk6GJQsqaUBKTNV-1" source="k3ktSkJtKuqgEnv20yum-59" target="k3ktSkJtKuqgEnv20yum-55" edge="1">
          <mxGeometry relative="1" as="geometry" />
        </mxCell>
        <mxCell id="k3ktSkJtKuqgEnv20yum-62" style="edgeStyle=none;curved=0;rounded=0;orthogonalLoop=1;jettySize=auto;html=1;exitX=0.519;exitY=0.961;exitDx=0;exitDy=0;exitPerimeter=0;entryX=0.5;entryY=0;entryDx=0;entryDy=0;entryPerimeter=0;fontSize=12;startSize=8;endSize=8;" parent="WIyWlLk6GJQsqaUBKTNV-1" source="TSFyWmvM7NFGQRtw7dhG-10" target="H1qVcyVTpbuyozmzhnAa-62" edge="1">
          <mxGeometry relative="1" as="geometry">
            <Array as="points">
              <mxPoint x="2181" y="3320" />
              <mxPoint x="1620" y="3320" />
            </Array>
          </mxGeometry>
        </mxCell>
        <mxCell id="k3ktSkJtKuqgEnv20yum-64" value="" style="endArrow=none;html=1;rounded=0;fontSize=12;startSize=8;endSize=8;curved=1;entryX=0.5;entryY=0;entryDx=0;entryDy=0;entryPerimeter=0;" parent="WIyWlLk6GJQsqaUBKTNV-1" source="TSFyWmvM7NFGQRtw7dhG-8" target="k3ktSkJtKuqgEnv20yum-13" edge="1">
          <mxGeometry width="50" height="50" relative="1" as="geometry">
            <mxPoint x="1820" y="3200" as="sourcePoint" />
            <mxPoint x="1820" y="3120" as="targetPoint" />
          </mxGeometry>
        </mxCell>
        <mxCell id="k3ktSkJtKuqgEnv20yum-67" style="edgeStyle=none;curved=1;rounded=0;orthogonalLoop=1;jettySize=auto;html=1;exitX=0.5;exitY=1;exitDx=0;exitDy=0;exitPerimeter=0;entryX=0.5;entryY=0;entryDx=0;entryDy=0;fontSize=12;startSize=8;endSize=8;fontFamily=Times New Roman;entryPerimeter=0;" parent="WIyWlLk6GJQsqaUBKTNV-1" source="k3ktSkJtKuqgEnv20yum-68" target="k3ktSkJtKuqgEnv20yum-79" edge="1">
          <mxGeometry relative="1" as="geometry">
            <mxPoint x="2181.5" y="1558" as="targetPoint" />
          </mxGeometry>
        </mxCell>
        <mxCell id="k3ktSkJtKuqgEnv20yum-68" value="Начало" style="strokeWidth=2;html=1;shape=mxgraph.flowchart.terminator;whiteSpace=wrap;fontFamily=Times New Roman;" parent="WIyWlLk6GJQsqaUBKTNV-1" vertex="1">
          <mxGeometry x="2121.5" y="1480" width="120" height="40" as="geometry" />
        </mxCell>
        <mxCell id="k3ktSkJtKuqgEnv20yum-69" value="Конец" style="strokeWidth=2;html=1;shape=mxgraph.flowchart.terminator;whiteSpace=wrap;fontFamily=Times New Roman;" parent="WIyWlLk6GJQsqaUBKTNV-1" vertex="1">
          <mxGeometry x="2121.5" y="1909.5" width="120" height="40" as="geometry" />
        </mxCell>
        <mxCell id="k3ktSkJtKuqgEnv20yum-70" value="static void outputMassivesToConsole(int[] mas)" style="strokeWidth=2;html=1;shape=mxgraph.flowchart.annotation_2;align=left;labelPosition=right;pointerEvents=1;fontFamily=Times New Roman;" parent="WIyWlLk6GJQsqaUBKTNV-1" vertex="1">
          <mxGeometry x="2241.5" y="1485" width="33" height="30" as="geometry" />
        </mxCell>
        <mxCell id="k3ktSkJtKuqgEnv20yum-71" style="edgeStyle=none;curved=1;rounded=0;orthogonalLoop=1;jettySize=auto;html=1;exitX=0.5;exitY=1;exitDx=0;exitDy=0;entryX=0.5;entryY=0;entryDx=0;entryDy=0;fontSize=12;startSize=8;endSize=8;fontFamily=Times New Roman;" parent="WIyWlLk6GJQsqaUBKTNV-1" target="k3ktSkJtKuqgEnv20yum-76" edge="1">
          <mxGeometry relative="1" as="geometry">
            <mxPoint x="2181.5" y="1678" as="targetPoint" />
            <mxPoint x="2181.5" y="1638" as="sourcePoint" />
          </mxGeometry>
        </mxCell>
        <mxCell id="k3ktSkJtKuqgEnv20yum-73" style="edgeStyle=none;curved=1;rounded=0;orthogonalLoop=1;jettySize=auto;html=1;exitX=0.5;exitY=1;exitDx=0;exitDy=0;entryX=0.5;entryY=0;entryDx=0;entryDy=0;entryPerimeter=0;fontSize=12;startSize=8;endSize=8;fontFamily=Times New Roman;" parent="WIyWlLk6GJQsqaUBKTNV-1" target="k3ktSkJtKuqgEnv20yum-69" edge="1">
          <mxGeometry relative="1" as="geometry">
            <mxPoint x="2181.5" y="1879.5" as="sourcePoint" />
          </mxGeometry>
        </mxCell>
        <mxCell id="k3ktSkJtKuqgEnv20yum-75" style="edgeStyle=none;curved=1;rounded=0;orthogonalLoop=1;jettySize=auto;html=1;entryX=0.5;entryY=1;entryDx=0;entryDy=0;fontSize=12;startSize=8;endSize=8;entryPerimeter=0;" parent="WIyWlLk6GJQsqaUBKTNV-1" source="k3ktSkJtKuqgEnv20yum-76" target="k3ktSkJtKuqgEnv20yum-78" edge="1">
          <mxGeometry relative="1" as="geometry">
            <mxPoint x="2181.5" y="1800" as="targetPoint" />
          </mxGeometry>
        </mxCell>
        <mxCell id="k3ktSkJtKuqgEnv20yum-76" value="Вывод&lt;div&gt;$&quot;[{i}]: {mas[i]}&quot;&lt;br&gt;&lt;/div&gt;" style="shape=parallelogram;perimeter=parallelogramPerimeter;whiteSpace=wrap;html=1;fixedSize=1;fontFamily=Times New Roman;" parent="WIyWlLk6GJQsqaUBKTNV-1" vertex="1">
          <mxGeometry x="2121.5" y="1680" width="120" height="80" as="geometry" />
        </mxCell>
        <mxCell id="k3ktSkJtKuqgEnv20yum-78" value="Цикл4&lt;br&gt;&amp;nbsp;i++;" style="strokeWidth=2;html=1;shape=mxgraph.flowchart.loop_limit;whiteSpace=wrap;flipH=1;flipV=1;fontFamily=Times New Roman;" parent="WIyWlLk6GJQsqaUBKTNV-1" vertex="1">
          <mxGeometry x="2121" y="1800" width="120" height="80" as="geometry" />
        </mxCell>
        <mxCell id="k3ktSkJtKuqgEnv20yum-79" value="Цикл4&lt;div&gt;int i = 0;&amp;nbsp;&lt;/div&gt;&lt;div&gt;i &amp;lt; mas.Length;&lt;br&gt;&lt;/div&gt;" style="strokeWidth=2;html=1;shape=mxgraph.flowchart.loop_limit;whiteSpace=wrap;fontFamily=Times New Roman;" parent="WIyWlLk6GJQsqaUBKTNV-1" vertex="1">
          <mxGeometry x="2121.5" y="1560" width="120" height="80" as="geometry" />
        </mxCell>
        <mxCell id="k3ktSkJtKuqgEnv20yum-90" style="edgeStyle=none;curved=1;rounded=0;orthogonalLoop=1;jettySize=auto;html=1;exitX=0.5;exitY=1;exitDx=0;exitDy=0;exitPerimeter=0;entryX=0.5;entryY=0;entryDx=0;entryDy=0;fontSize=12;startSize=8;endSize=8;fontFamily=Times New Roman;" parent="WIyWlLk6GJQsqaUBKTNV-1" source="k3ktSkJtKuqgEnv20yum-91" target="k3ktSkJtKuqgEnv20yum-102" edge="1">
          <mxGeometry relative="1" as="geometry">
            <mxPoint x="2620.5" y="1558" as="targetPoint" />
          </mxGeometry>
        </mxCell>
        <mxCell id="k3ktSkJtKuqgEnv20yum-91" value="Начало" style="strokeWidth=2;html=1;shape=mxgraph.flowchart.terminator;whiteSpace=wrap;fontFamily=Times New Roman;" parent="WIyWlLk6GJQsqaUBKTNV-1" vertex="1">
          <mxGeometry x="2560.5" y="1480" width="120" height="40" as="geometry" />
        </mxCell>
        <mxCell id="k3ktSkJtKuqgEnv20yum-92" value="Конец" style="strokeWidth=2;html=1;shape=mxgraph.flowchart.terminator;whiteSpace=wrap;fontFamily=Times New Roman;" parent="WIyWlLk6GJQsqaUBKTNV-1" vertex="1">
          <mxGeometry x="2560.5" y="2280" width="120" height="40" as="geometry" />
        </mxCell>
        <mxCell id="k3ktSkJtKuqgEnv20yum-93" value="static int findMax(int[] mas)" style="strokeWidth=2;html=1;shape=mxgraph.flowchart.annotation_2;align=left;labelPosition=right;pointerEvents=1;fontFamily=Times New Roman;" parent="WIyWlLk6GJQsqaUBKTNV-1" vertex="1">
          <mxGeometry x="2680.5" y="1485" width="33" height="30" as="geometry" />
        </mxCell>
        <mxCell id="k3ktSkJtKuqgEnv20yum-94" style="edgeStyle=none;curved=1;rounded=0;orthogonalLoop=1;jettySize=auto;html=1;exitX=0.5;exitY=1;exitDx=0;exitDy=0;entryX=0.5;entryY=0;entryDx=0;entryDy=0;fontSize=12;startSize=8;endSize=8;fontFamily=Times New Roman;" parent="WIyWlLk6GJQsqaUBKTNV-1" edge="1">
          <mxGeometry relative="1" as="geometry">
            <mxPoint x="2620.5" y="1922" as="targetPoint" />
            <mxPoint x="2620.5" y="1880" as="sourcePoint" />
          </mxGeometry>
        </mxCell>
        <mxCell id="k3ktSkJtKuqgEnv20yum-95" style="edgeStyle=none;curved=1;rounded=0;orthogonalLoop=1;jettySize=auto;html=1;exitX=0.5;exitY=1;exitDx=0;exitDy=0;entryX=0.5;entryY=0;entryDx=0;entryDy=0;entryPerimeter=0;fontSize=12;startSize=8;endSize=8;fontFamily=Times New Roman;" parent="WIyWlLk6GJQsqaUBKTNV-1" source="k3ktSkJtKuqgEnv20yum-110" target="k3ktSkJtKuqgEnv20yum-92" edge="1">
          <mxGeometry relative="1" as="geometry">
            <mxPoint x="2620.5" y="2121.5" as="sourcePoint" />
          </mxGeometry>
        </mxCell>
        <mxCell id="k3ktSkJtKuqgEnv20yum-96" style="edgeStyle=none;curved=1;rounded=0;orthogonalLoop=1;jettySize=auto;html=1;entryX=0.5;entryY=1;entryDx=0;entryDy=0;fontSize=12;startSize=8;endSize=8;entryPerimeter=0;" parent="WIyWlLk6GJQsqaUBKTNV-1" target="k3ktSkJtKuqgEnv20yum-98" edge="1">
          <mxGeometry relative="1" as="geometry">
            <mxPoint x="2620.5" y="2042" as="targetPoint" />
            <mxPoint x="2620.25" y="2002" as="sourcePoint" />
          </mxGeometry>
        </mxCell>
        <mxCell id="k3ktSkJtKuqgEnv20yum-98" value="Цикл5&lt;br&gt;&amp;nbsp;i++;" style="strokeWidth=2;html=1;shape=mxgraph.flowchart.loop_limit;whiteSpace=wrap;flipH=1;flipV=1;fontFamily=Times New Roman;" parent="WIyWlLk6GJQsqaUBKTNV-1" vertex="1">
          <mxGeometry x="2560" y="2042" width="120" height="80" as="geometry" />
        </mxCell>
        <mxCell id="k3ktSkJtKuqgEnv20yum-107" style="edgeStyle=none;curved=1;rounded=0;orthogonalLoop=1;jettySize=auto;html=1;exitX=0.5;exitY=1;exitDx=0;exitDy=0;exitPerimeter=0;entryX=0.5;entryY=0;entryDx=0;entryDy=0;fontSize=12;startSize=8;endSize=8;" parent="WIyWlLk6GJQsqaUBKTNV-1" source="k3ktSkJtKuqgEnv20yum-99" target="k3ktSkJtKuqgEnv20yum-104" edge="1">
          <mxGeometry relative="1" as="geometry" />
        </mxCell>
        <mxCell id="k3ktSkJtKuqgEnv20yum-99" value="Цикл5&lt;div&gt;int i = 0;&amp;nbsp;&lt;/div&gt;&lt;div&gt;i &amp;lt; mas.Length;&lt;br&gt;&lt;/div&gt;" style="strokeWidth=2;html=1;shape=mxgraph.flowchart.loop_limit;whiteSpace=wrap;fontFamily=Times New Roman;" parent="WIyWlLk6GJQsqaUBKTNV-1" vertex="1">
          <mxGeometry x="2561" y="1680" width="120" height="80" as="geometry" />
        </mxCell>
        <mxCell id="k3ktSkJtKuqgEnv20yum-102" value="int max = mas[0];" style="rounded=0;whiteSpace=wrap;html=1;fontFamily=Times New Roman;" parent="WIyWlLk6GJQsqaUBKTNV-1" vertex="1">
          <mxGeometry x="2561" y="1560" width="120" height="80" as="geometry" />
        </mxCell>
        <mxCell id="k3ktSkJtKuqgEnv20yum-103" style="edgeStyle=none;curved=1;rounded=0;orthogonalLoop=1;jettySize=auto;html=1;exitX=0.5;exitY=1;exitDx=0;exitDy=0;entryX=0.5;entryY=0;entryDx=0;entryDy=0;entryPerimeter=0;fontSize=12;startSize=8;endSize=8;" parent="WIyWlLk6GJQsqaUBKTNV-1" source="k3ktSkJtKuqgEnv20yum-102" target="k3ktSkJtKuqgEnv20yum-99" edge="1">
          <mxGeometry relative="1" as="geometry" />
        </mxCell>
        <mxCell id="k3ktSkJtKuqgEnv20yum-104" value="mas[i] &amp;gt; max" style="rhombus;whiteSpace=wrap;html=1;fontFamily=Times New Roman;" parent="WIyWlLk6GJQsqaUBKTNV-1" vertex="1">
          <mxGeometry x="2560" y="1800" width="120" height="80" as="geometry" />
        </mxCell>
        <mxCell id="k3ktSkJtKuqgEnv20yum-105" value="Да" style="text;strokeColor=none;fillColor=none;html=1;align=center;verticalAlign=middle;whiteSpace=wrap;rounded=0;fontSize=16;fontFamily=Times New Roman;" parent="WIyWlLk6GJQsqaUBKTNV-1" vertex="1">
          <mxGeometry x="2620" y="1870" width="60" height="30" as="geometry" />
        </mxCell>
        <mxCell id="k3ktSkJtKuqgEnv20yum-109" style="edgeStyle=none;curved=0;rounded=0;orthogonalLoop=1;jettySize=auto;html=1;exitX=0;exitY=1;exitDx=0;exitDy=0;fontSize=12;startSize=8;endSize=8;" parent="WIyWlLk6GJQsqaUBKTNV-1" source="k3ktSkJtKuqgEnv20yum-106" edge="1">
          <mxGeometry relative="1" as="geometry">
            <mxPoint x="2620" y="2020" as="targetPoint" />
            <Array as="points">
              <mxPoint x="2760" y="1840" />
              <mxPoint x="2760" y="2020" />
            </Array>
          </mxGeometry>
        </mxCell>
        <mxCell id="k3ktSkJtKuqgEnv20yum-106" value="Нет" style="text;strokeColor=none;fillColor=none;html=1;align=center;verticalAlign=middle;whiteSpace=wrap;rounded=0;fontSize=16;fontFamily=Times New Roman;" parent="WIyWlLk6GJQsqaUBKTNV-1" vertex="1">
          <mxGeometry x="2680" y="1810" width="60" height="30" as="geometry" />
        </mxCell>
        <mxCell id="k3ktSkJtKuqgEnv20yum-108" value="max = mas[i];" style="rounded=0;whiteSpace=wrap;html=1;fontFamily=Times New Roman;" parent="WIyWlLk6GJQsqaUBKTNV-1" vertex="1">
          <mxGeometry x="2561" y="1920" width="120" height="80" as="geometry" />
        </mxCell>
        <mxCell id="k3ktSkJtKuqgEnv20yum-111" value="" style="edgeStyle=none;curved=1;rounded=0;orthogonalLoop=1;jettySize=auto;html=1;exitX=0.5;exitY=1;exitDx=0;exitDy=0;entryX=0.5;entryY=0;entryDx=0;entryDy=0;entryPerimeter=0;fontSize=12;startSize=8;endSize=8;fontFamily=Times New Roman;" parent="WIyWlLk6GJQsqaUBKTNV-1" target="k3ktSkJtKuqgEnv20yum-110" edge="1">
          <mxGeometry relative="1" as="geometry">
            <mxPoint x="2620.5" y="2121.5" as="sourcePoint" />
            <mxPoint x="2621" y="2280" as="targetPoint" />
          </mxGeometry>
        </mxCell>
        <mxCell id="k3ktSkJtKuqgEnv20yum-110" value="return max" style="rounded=0;whiteSpace=wrap;html=1;fontFamily=Times New Roman;" parent="WIyWlLk6GJQsqaUBKTNV-1" vertex="1">
          <mxGeometry x="2560" y="2161" width="120" height="80" as="geometry" />
        </mxCell>
        <mxCell id="k3ktSkJtKuqgEnv20yum-112" style="edgeStyle=none;curved=1;rounded=0;orthogonalLoop=1;jettySize=auto;html=1;exitX=0.5;exitY=1;exitDx=0;exitDy=0;exitPerimeter=0;entryX=0.5;entryY=0;entryDx=0;entryDy=0;fontSize=12;startSize=8;endSize=8;fontFamily=Times New Roman;entryPerimeter=0;" parent="WIyWlLk6GJQsqaUBKTNV-1" source="k3ktSkJtKuqgEnv20yum-113" target="k3ktSkJtKuqgEnv20yum-121" edge="1">
          <mxGeometry relative="1" as="geometry">
            <mxPoint x="2941.5" y="1560" as="targetPoint" />
          </mxGeometry>
        </mxCell>
        <mxCell id="k3ktSkJtKuqgEnv20yum-113" value="Начало" style="strokeWidth=2;html=1;shape=mxgraph.flowchart.terminator;whiteSpace=wrap;fontFamily=Times New Roman;" parent="WIyWlLk6GJQsqaUBKTNV-1" vertex="1">
          <mxGeometry x="2881" y="1480" width="120" height="40" as="geometry" />
        </mxCell>
        <mxCell id="k3ktSkJtKuqgEnv20yum-115" value="static void resetEveryMultipleOfN(int[] mas, int n)" style="strokeWidth=2;html=1;shape=mxgraph.flowchart.annotation_2;align=left;labelPosition=right;pointerEvents=1;fontFamily=Times New Roman;" parent="WIyWlLk6GJQsqaUBKTNV-1" vertex="1">
          <mxGeometry x="3001" y="1485" width="33" height="30" as="geometry" />
        </mxCell>
        <mxCell id="k3ktSkJtKuqgEnv20yum-116" style="edgeStyle=none;curved=1;rounded=0;orthogonalLoop=1;jettySize=auto;html=1;exitX=0.5;exitY=1;exitDx=0;exitDy=0;entryX=0.5;entryY=0;entryDx=0;entryDy=0;fontSize=12;startSize=8;endSize=8;fontFamily=Times New Roman;" parent="WIyWlLk6GJQsqaUBKTNV-1" edge="1">
          <mxGeometry relative="1" as="geometry">
            <mxPoint x="2940.5" y="1802" as="targetPoint" />
            <mxPoint x="2940.5" y="1760" as="sourcePoint" />
          </mxGeometry>
        </mxCell>
        <mxCell id="k3ktSkJtKuqgEnv20yum-118" style="edgeStyle=none;curved=1;rounded=0;orthogonalLoop=1;jettySize=auto;html=1;entryX=0.5;entryY=1;entryDx=0;entryDy=0;fontSize=12;startSize=8;endSize=8;entryPerimeter=0;" parent="WIyWlLk6GJQsqaUBKTNV-1" target="k3ktSkJtKuqgEnv20yum-119" edge="1">
          <mxGeometry relative="1" as="geometry">
            <mxPoint x="2940.5" y="1922" as="targetPoint" />
            <mxPoint x="2940.25" y="1882" as="sourcePoint" />
          </mxGeometry>
        </mxCell>
        <mxCell id="k3ktSkJtKuqgEnv20yum-119" value="Цикл6&lt;br&gt;&amp;nbsp;i++;" style="strokeWidth=2;html=1;shape=mxgraph.flowchart.loop_limit;whiteSpace=wrap;flipH=1;flipV=1;fontFamily=Times New Roman;" parent="WIyWlLk6GJQsqaUBKTNV-1" vertex="1">
          <mxGeometry x="2880" y="1922" width="120" height="80" as="geometry" />
        </mxCell>
        <mxCell id="k3ktSkJtKuqgEnv20yum-120" style="edgeStyle=none;curved=1;rounded=0;orthogonalLoop=1;jettySize=auto;html=1;exitX=0.5;exitY=1;exitDx=0;exitDy=0;exitPerimeter=0;entryX=0.5;entryY=0;entryDx=0;entryDy=0;fontSize=12;startSize=8;endSize=8;" parent="WIyWlLk6GJQsqaUBKTNV-1" source="k3ktSkJtKuqgEnv20yum-121" target="k3ktSkJtKuqgEnv20yum-124" edge="1">
          <mxGeometry relative="1" as="geometry" />
        </mxCell>
        <mxCell id="k3ktSkJtKuqgEnv20yum-121" value="Цикл6&lt;div&gt;int i = 0;&amp;nbsp;&lt;/div&gt;&lt;div&gt;i &amp;lt; mas.Length;&lt;br&gt;&lt;/div&gt;" style="strokeWidth=2;html=1;shape=mxgraph.flowchart.loop_limit;whiteSpace=wrap;fontFamily=Times New Roman;" parent="WIyWlLk6GJQsqaUBKTNV-1" vertex="1">
          <mxGeometry x="2881" y="1560" width="120" height="80" as="geometry" />
        </mxCell>
        <mxCell id="k3ktSkJtKuqgEnv20yum-124" value="mas[i] % n == 0" style="rhombus;whiteSpace=wrap;html=1;fontFamily=Times New Roman;" parent="WIyWlLk6GJQsqaUBKTNV-1" vertex="1">
          <mxGeometry x="2880" y="1680" width="120" height="80" as="geometry" />
        </mxCell>
        <mxCell id="k3ktSkJtKuqgEnv20yum-125" value="Да" style="text;strokeColor=none;fillColor=none;html=1;align=center;verticalAlign=middle;whiteSpace=wrap;rounded=0;fontSize=16;fontFamily=Times New Roman;" parent="WIyWlLk6GJQsqaUBKTNV-1" vertex="1">
          <mxGeometry x="2940" y="1750" width="60" height="30" as="geometry" />
        </mxCell>
        <mxCell id="k3ktSkJtKuqgEnv20yum-126" style="edgeStyle=none;curved=0;rounded=0;orthogonalLoop=1;jettySize=auto;html=1;exitX=0;exitY=1;exitDx=0;exitDy=0;fontSize=12;startSize=8;endSize=8;" parent="WIyWlLk6GJQsqaUBKTNV-1" source="k3ktSkJtKuqgEnv20yum-127" edge="1">
          <mxGeometry relative="1" as="geometry">
            <mxPoint x="2940" y="1900" as="targetPoint" />
            <Array as="points">
              <mxPoint x="3080" y="1720" />
              <mxPoint x="3080" y="1900" />
            </Array>
          </mxGeometry>
        </mxCell>
        <mxCell id="k3ktSkJtKuqgEnv20yum-127" value="Нет" style="text;strokeColor=none;fillColor=none;html=1;align=center;verticalAlign=middle;whiteSpace=wrap;rounded=0;fontSize=16;fontFamily=Times New Roman;" parent="WIyWlLk6GJQsqaUBKTNV-1" vertex="1">
          <mxGeometry x="3000" y="1690" width="60" height="30" as="geometry" />
        </mxCell>
        <mxCell id="k3ktSkJtKuqgEnv20yum-128" value="mas[i] = 0" style="rounded=0;whiteSpace=wrap;html=1;fontFamily=Times New Roman;" parent="WIyWlLk6GJQsqaUBKTNV-1" vertex="1">
          <mxGeometry x="2881" y="1800" width="120" height="80" as="geometry" />
        </mxCell>
        <mxCell id="k3ktSkJtKuqgEnv20yum-129" value="" style="edgeStyle=none;curved=1;rounded=0;orthogonalLoop=1;jettySize=auto;html=1;exitX=0.5;exitY=1;exitDx=0;exitDy=0;entryX=0.5;entryY=0;entryDx=0;entryDy=0;entryPerimeter=0;fontSize=12;startSize=8;endSize=8;fontFamily=Times New Roman;" parent="WIyWlLk6GJQsqaUBKTNV-1" source="k3ktSkJtKuqgEnv20yum-114" edge="1">
          <mxGeometry relative="1" as="geometry">
            <mxPoint x="2940.5" y="2001.5" as="sourcePoint" />
            <mxPoint x="2940" y="2041" as="targetPoint" />
          </mxGeometry>
        </mxCell>
        <mxCell id="k3ktSkJtKuqgEnv20yum-131" value="" style="edgeStyle=none;curved=1;rounded=0;orthogonalLoop=1;jettySize=auto;html=1;exitX=0.5;exitY=1;exitDx=0;exitDy=0;entryX=0.5;entryY=0;entryDx=0;entryDy=0;entryPerimeter=0;fontSize=12;startSize=8;endSize=8;fontFamily=Times New Roman;" parent="WIyWlLk6GJQsqaUBKTNV-1" target="k3ktSkJtKuqgEnv20yum-114" edge="1">
          <mxGeometry relative="1" as="geometry">
            <mxPoint x="2940.5" y="2001.5" as="sourcePoint" />
            <mxPoint x="2940" y="2041" as="targetPoint" />
          </mxGeometry>
        </mxCell>
        <mxCell id="k3ktSkJtKuqgEnv20yum-114" value="Конец" style="strokeWidth=2;html=1;shape=mxgraph.flowchart.terminator;whiteSpace=wrap;fontFamily=Times New Roman;" parent="WIyWlLk6GJQsqaUBKTNV-1" vertex="1">
          <mxGeometry x="2881" y="2041" width="120" height="40" as="geometry" />
        </mxCell>
        <mxCell id="TSFyWmvM7NFGQRtw7dhG-0" value="Да" style="text;strokeColor=none;fillColor=none;html=1;align=center;verticalAlign=middle;whiteSpace=wrap;rounded=0;fontSize=16;fontFamily=Times New Roman;" parent="WIyWlLk6GJQsqaUBKTNV-1" vertex="1">
          <mxGeometry x="2091" y="645" width="60" height="30" as="geometry" />
        </mxCell>
        <mxCell id="TSFyWmvM7NFGQRtw7dhG-1" value="Нет" style="text;strokeColor=none;fillColor=none;html=1;align=center;verticalAlign=middle;whiteSpace=wrap;rounded=0;fontSize=16;fontFamily=Times New Roman;" parent="WIyWlLk6GJQsqaUBKTNV-1" vertex="1">
          <mxGeometry x="2037" y="710" width="60" height="30" as="geometry" />
        </mxCell>
        <mxCell id="TSFyWmvM7NFGQRtw7dhG-4" value="" style="edgeStyle=none;curved=1;rounded=0;orthogonalLoop=1;jettySize=auto;html=1;fontSize=12;startSize=8;endSize=8;" parent="WIyWlLk6GJQsqaUBKTNV-1" target="TSFyWmvM7NFGQRtw7dhG-3" edge="1">
          <mxGeometry relative="1" as="geometry">
            <mxPoint x="1620" y="1880" as="sourcePoint" />
            <mxPoint x="1620" y="2060" as="targetPoint" />
          </mxGeometry>
        </mxCell>
        <mxCell id="TSFyWmvM7NFGQRtw7dhG-3" value="ChoiceInput:" style="rounded=0;whiteSpace=wrap;html=1;fontFamily=Times New Roman;" parent="WIyWlLk6GJQsqaUBKTNV-1" vertex="1">
          <mxGeometry x="1560" y="1919.5" width="120" height="80" as="geometry" />
        </mxCell>
        <mxCell id="TSFyWmvM7NFGQRtw7dhG-5" value="goto ChoiceInput:" style="rounded=0;whiteSpace=wrap;html=1;fontFamily=Times New Roman;" parent="WIyWlLk6GJQsqaUBKTNV-1" vertex="1">
          <mxGeometry x="1561" y="2680" width="120" height="80" as="geometry" />
        </mxCell>
        <mxCell id="TSFyWmvM7NFGQRtw7dhG-9" value="" style="endArrow=none;html=1;rounded=0;fontSize=12;startSize=8;endSize=8;curved=1;entryX=0.5;entryY=0;entryDx=0;entryDy=0;entryPerimeter=0;" parent="WIyWlLk6GJQsqaUBKTNV-1" target="TSFyWmvM7NFGQRtw7dhG-8" edge="1">
          <mxGeometry width="50" height="50" relative="1" as="geometry">
            <mxPoint x="1820" y="3320" as="sourcePoint" />
            <mxPoint x="1823" y="3056" as="targetPoint" />
          </mxGeometry>
        </mxCell>
        <mxCell id="TSFyWmvM7NFGQRtw7dhG-8" value="break" style="rounded=0;whiteSpace=wrap;html=1;fontFamily=Times New Roman;" parent="WIyWlLk6GJQsqaUBKTNV-1" vertex="1">
          <mxGeometry x="1763" y="3080" width="120" height="80" as="geometry" />
        </mxCell>
        <mxCell id="TSFyWmvM7NFGQRtw7dhG-10" value="break" style="rounded=0;whiteSpace=wrap;html=1;fontFamily=Times New Roman;" parent="WIyWlLk6GJQsqaUBKTNV-1" vertex="1">
          <mxGeometry x="2119" y="3220" width="120" height="80" as="geometry" />
        </mxCell>
        <mxCell id="Ihco5VMnrDPB54UxoOf0-0" value="default:" style="text;strokeColor=none;fillColor=none;html=1;align=center;verticalAlign=middle;whiteSpace=wrap;rounded=0;fontSize=16;fontFamily=Times New Roman;" vertex="1" parent="WIyWlLk6GJQsqaUBKTNV-1">
          <mxGeometry x="1620" y="2500" width="60" height="30" as="geometry" />
        </mxCell>
      </root>
    </mxGraphModel>
  </diagram>
</mxfile>
